<?xml version="1.0" encoding="utf-8"?>
<!-- Generator: Adobe Illustrator 19.1.0, SVG Export Plug-In . SVG Version: 6.00 Build 0)  -->
<svg version="1.1" id="Layer_1" xmlns="http://www.w3.org/2000/svg" xmlns:xlink="http://www.w3.org/1999/xlink" x="0px" y="0px"
	 viewBox="0 0 196.9 201.1" style="enable-background:new 0 0 196.9 201.1;" xml:space="preserve">
<style type="text/css">
	.st0{fill:url(#SVGID_1_);}
	.st1{fill:#33ABC0;}
	.st2{fill:#5B8F40;}
	.st3{fill:#5B2B82;}
	.st4{fill:#7A9C49;}
	.st5{fill:#FFFFFF;}
	.st6{fill:url(#SVGID_2_);}
	.st7{fill:#33ABC0;stroke:#FFFFFF;stroke-width:2;stroke-miterlimit:10;}
	.st8{fill:#5B8F40;stroke:#FFFFFF;stroke-width:2;stroke-miterlimit:10;}
</style>
<g>
	<linearGradient id="SVGID_1_" gradientUnits="userSpaceOnUse" x1="5.819002e-07" y1="84.6359" x2="195.4582" y2="84.6359">
		<stop  offset="0" style="stop-color:#7A9C49"/>
		<stop  offset="0.6709" style="stop-color:#5B2B82"/>
	</linearGradient>
	<polygon class="st0" points="97.7,169.3 0,169.3 48.9,84.6 97.7,0 146.6,84.6 195.5,169.3 	"/>
	<circle class="st1" cx="98.1" cy="112.4" r="50.6"/>
	<g>
		<path d="M16.2,192.6H11l-1,2.6H5.9l5.7-14.7h4.2l5.5,14.7h-4.1L16.2,192.6z M15.2,189.6l-1.6-4.7h0l-1.6,4.7H15.2z"/>
		<path d="M31,180.8v4.6c-0.4-0.5-0.9-0.9-1.5-1.2c-0.6-0.3-1.2-0.4-1.9-0.4c-0.8,0-1.4,0.2-2,0.5c-0.6,0.4-1.1,0.8-1.4,1.5
			c-0.3,0.6-0.5,1.3-0.5,2.1c0,0.8,0.2,1.4,0.5,2.1c0.3,0.6,0.8,1.1,1.4,1.4s1.3,0.5,2.1,0.5c0.6,0,1.2-0.1,1.8-0.4s1.1-0.7,1.5-1.1
			v4.6c-0.9,0.3-1.5,0.4-1.9,0.5c-0.4,0.1-0.9,0.1-1.4,0.1c-1,0-2-0.2-3-0.6c-0.9-0.4-1.8-0.9-2.6-1.6c-1.6-1.4-2.4-3.3-2.4-5.6
			c0-1,0.2-2,0.6-2.9c0.4-0.9,0.9-1.8,1.6-2.5c0.5-0.5,1-0.9,1.6-1.3c0.6-0.4,1.2-0.6,1.9-0.8s1.4-0.3,2-0.3
			C28.7,180,29.8,180.3,31,180.8z"/>
		<path d="M41.4,180.4h3.8v8.3c0,0.8,0,1.5-0.1,2c-0.1,0.6-0.2,1.1-0.4,1.7s-0.6,1-1,1.5c-0.4,0.4-0.9,0.7-1.4,0.9s-1.1,0.4-1.7,0.5
			c-0.6,0.1-1.2,0.2-1.8,0.2c-1,0-1.9-0.1-2.7-0.4c-0.9-0.3-1.6-0.7-2.2-1.2c-0.4-0.4-0.8-0.9-1-1.5s-0.4-1.1-0.4-1.7
			c0-0.3,0-0.6-0.1-0.9c0-0.4,0-0.7,0-1.1v-8.3h3.8v7.8c0,0.8,0.1,1.5,0.2,2.1s0.3,1,0.7,1.4c0.4,0.4,0.9,0.6,1.7,0.6
			s1.3-0.2,1.7-0.6c0.4-0.4,0.6-0.8,0.7-1.4s0.2-1.2,0.2-2.1V180.4z"/>
		<path d="M52.5,183.7v11.5h-3.8v-11.5h-3.2v-3.2h10.1v3.2H52.5z"/>
		<path d="M64.4,183.7h-4.5v2.4h4.3v3.2h-4.3v2.6h4.5v3.2h-8.4v-14.7h8.4V183.7z"/>
		<path d="M83.1,180.8v4.6c-0.4-0.5-0.9-0.9-1.5-1.2c-0.6-0.3-1.2-0.4-1.9-0.4c-0.8,0-1.4,0.2-2,0.5c-0.6,0.4-1.1,0.8-1.4,1.5
			c-0.3,0.6-0.5,1.3-0.5,2.1c0,0.8,0.2,1.4,0.5,2.1c0.3,0.6,0.8,1.1,1.4,1.4s1.3,0.5,2.1,0.5c0.6,0,1.2-0.1,1.8-0.4
			c0.6-0.3,1.1-0.7,1.5-1.1v4.6c-0.9,0.3-1.5,0.4-1.9,0.5c-0.4,0.1-0.9,0.1-1.4,0.1c-1,0-2-0.2-3-0.6c-0.9-0.4-1.8-0.9-2.6-1.6
			c-1.6-1.4-2.4-3.3-2.4-5.6c0-1,0.2-2,0.6-2.9c0.4-0.9,0.9-1.8,1.6-2.5c0.5-0.5,1-0.9,1.6-1.3c0.6-0.4,1.2-0.6,1.9-0.8
			c0.7-0.2,1.4-0.3,2-0.3C80.7,180,81.9,180.3,83.1,180.8z"/>
		<path d="M93.5,192.6h-5.3l-1,2.6h-4.1l5.7-14.7H93l5.5,14.7h-4.1L93.5,192.6z M92.4,189.6l-1.6-4.7h0l-1.6,4.7H92.4z"/>
		<path d="M106.3,189.1l4.6,6h-4.8l-3.6-5.7h0v5.7h-3.8v-14.7h5.7c1,0,1.9,0.2,2.7,0.5c0.8,0.3,1.4,0.8,1.8,1.5
			c0.4,0.7,0.7,1.5,0.7,2.5c0,0.7-0.1,1.3-0.4,1.9c-0.3,0.6-0.6,1.1-1.1,1.5C107.6,188.7,107,189,106.3,189.1z M102.6,183.3v3.7h0.4
			c0.5,0,0.9,0,1.3-0.1c0.4-0.1,0.7-0.3,1-0.5c0.3-0.3,0.4-0.7,0.4-1.2c0-0.5-0.1-0.9-0.4-1.1c-0.2-0.3-0.6-0.5-0.9-0.5
			c-0.4-0.1-0.8-0.1-1.3-0.1H102.6z"/>
		<path d="M119.4,183.7h-4.5v2.4h4.3v3.2h-4.3v2.6h4.5v3.2H111v-14.7h8.4V183.7z"/>
		<path d="M132.4,183.7v11.5h-3.8v-11.5h-3.2v-3.2h10.1v3.2H132.4z"/>
		<path d="M143.6,189.1l4.6,6h-4.8l-3.6-5.7h0v5.7h-3.8v-14.7h5.7c1,0,1.9,0.2,2.7,0.5c0.8,0.3,1.4,0.8,1.8,1.5
			c0.4,0.7,0.7,1.5,0.7,2.5c0,0.7-0.1,1.3-0.4,1.9s-0.6,1.1-1.1,1.5C144.8,188.7,144.2,189,143.6,189.1z M139.8,183.3v3.7h0.4
			c0.5,0,0.9,0,1.3-0.1c0.4-0.1,0.7-0.3,1-0.5c0.3-0.3,0.4-0.7,0.4-1.2c0-0.5-0.1-0.9-0.4-1.1c-0.2-0.3-0.6-0.5-0.9-0.5
			c-0.4-0.1-0.8-0.1-1.3-0.1H139.8z"/>
		<path d="M152.1,180.4v14.7h-3.8v-14.7H152.1z"/>
		<path d="M162.6,192.6h-5.3l-1,2.6h-4.1l5.7-14.7h4.2l5.5,14.7h-4.1L162.6,192.6z M161.6,189.6L160,185h0l-1.6,4.7H161.6z"/>
		<path d="M174,186.9h7.6c0,0.4,0,0.8,0,1.1s-0.1,0.7-0.1,1c-0.1,0.6-0.2,1.2-0.4,1.8c-0.1,0.3-0.2,0.6-0.4,0.9s-0.3,0.6-0.5,0.9
			c-1.4,1.9-3.4,2.9-6.1,2.9c-1.5,0-2.9-0.3-4.1-1c-1.2-0.6-2.1-1.6-2.8-2.8c-0.3-0.6-0.6-1.2-0.7-1.9c-0.2-0.7-0.2-1.4-0.2-2.1
			c0-1.2,0.2-2.2,0.6-3.2c0.4-1,0.9-1.8,1.6-2.5s1.6-1.2,2.5-1.6c1-0.4,2.1-0.6,3.2-0.6c1,0,1.9,0.2,2.8,0.5
			c0.8,0.3,1.6,0.8,2.2,1.4c0.6,0.6,1.2,1.4,1.6,2.3l-3.6,1.5c-0.3-0.7-0.7-1.3-1.2-1.7c-0.6-0.4-1.2-0.6-1.9-0.6
			c-0.8,0-1.5,0.2-2.1,0.7s-1,1-1.3,1.7c-0.3,0.7-0.4,1.5-0.4,2.2c0,0.8,0.2,1.5,0.5,2.2c0.3,0.7,0.8,1.3,1.3,1.7
			c0.6,0.4,1.3,0.7,2.1,0.7c0.5,0,1-0.1,1.5-0.3s0.8-0.5,1.1-0.9s0.4-0.9,0.5-1.4H174V186.9z"/>
		<path d="M190.8,183.7h-4.5v2.4h4.3v3.2h-4.3v2.6h4.5v3.2h-8.4v-14.7h8.4V183.7z"/>
	</g>
	<rect x="1" y="174.4" class="st2" width="195.9" height="3.2"/>
	<rect x="1" y="197.8" class="st3" width="195.9" height="3.2"/>
	<g>
		<path d="M16.2,192.6H11l-1,2.6H5.9l5.7-14.7h4.2l5.5,14.7h-4.1L16.2,192.6z M15.2,189.6l-1.6-4.7h0l-1.6,4.7H15.2z"/>
		<path d="M31,180.8v4.6c-0.4-0.5-0.9-0.9-1.5-1.2c-0.6-0.3-1.2-0.4-1.9-0.4c-0.8,0-1.4,0.2-2,0.5c-0.6,0.4-1.1,0.8-1.4,1.5
			c-0.3,0.6-0.5,1.3-0.5,2.1c0,0.8,0.2,1.4,0.5,2.1c0.3,0.6,0.8,1.1,1.4,1.4s1.3,0.5,2.1,0.5c0.6,0,1.2-0.1,1.8-0.4s1.1-0.7,1.5-1.1
			v4.6c-0.9,0.3-1.5,0.4-1.9,0.5c-0.4,0.1-0.9,0.1-1.4,0.1c-1,0-2-0.2-3-0.6c-0.9-0.4-1.8-0.9-2.6-1.6c-1.6-1.4-2.4-3.3-2.4-5.6
			c0-1,0.2-2,0.6-2.9c0.4-0.9,0.9-1.8,1.6-2.5c0.5-0.5,1-0.9,1.6-1.3c0.6-0.4,1.2-0.6,1.9-0.8s1.4-0.3,2-0.3
			C28.7,180,29.8,180.3,31,180.8z"/>
		<path d="M41.4,180.4h3.8v8.3c0,0.8,0,1.5-0.1,2c-0.1,0.6-0.2,1.1-0.4,1.7s-0.6,1-1,1.5c-0.4,0.4-0.9,0.7-1.4,0.9s-1.1,0.4-1.7,0.5
			c-0.6,0.1-1.2,0.2-1.8,0.2c-1,0-1.9-0.1-2.7-0.4c-0.9-0.3-1.6-0.7-2.2-1.2c-0.4-0.4-0.8-0.9-1-1.5s-0.4-1.1-0.4-1.7
			c0-0.3,0-0.6-0.1-0.9c0-0.4,0-0.7,0-1.1v-8.3h3.8v7.8c0,0.8,0.1,1.5,0.2,2.1s0.3,1,0.7,1.4c0.4,0.4,0.9,0.6,1.7,0.6
			s1.3-0.2,1.7-0.6c0.4-0.4,0.6-0.8,0.7-1.4s0.2-1.2,0.2-2.1V180.4z"/>
		<path d="M52.5,183.7v11.5h-3.8v-11.5h-3.2v-3.2h10.1v3.2H52.5z"/>
		<path d="M64.4,183.7h-4.5v2.4h4.3v3.2h-4.3v2.6h4.5v3.2h-8.4v-14.7h8.4V183.7z"/>
		<path d="M83.1,180.8v4.6c-0.4-0.5-0.9-0.9-1.5-1.2c-0.6-0.3-1.2-0.4-1.9-0.4c-0.8,0-1.4,0.2-2,0.5c-0.6,0.4-1.1,0.8-1.4,1.5
			c-0.3,0.6-0.5,1.3-0.5,2.1c0,0.8,0.2,1.4,0.5,2.1c0.3,0.6,0.8,1.1,1.4,1.4s1.3,0.5,2.1,0.5c0.6,0,1.2-0.1,1.8-0.4
			c0.6-0.3,1.1-0.7,1.5-1.1v4.6c-0.9,0.3-1.5,0.4-1.9,0.5c-0.4,0.1-0.9,0.1-1.4,0.1c-1,0-2-0.2-3-0.6c-0.9-0.4-1.8-0.9-2.6-1.6
			c-1.6-1.4-2.4-3.3-2.4-5.6c0-1,0.2-2,0.6-2.9c0.4-0.9,0.9-1.8,1.6-2.5c0.5-0.5,1-0.9,1.6-1.3c0.6-0.4,1.2-0.6,1.9-0.8
			c0.7-0.2,1.4-0.3,2-0.3C80.7,180,81.9,180.3,83.1,180.8z"/>
		<path d="M93.5,192.6h-5.3l-1,2.6h-4.1l5.7-14.7H93l5.5,14.7h-4.1L93.5,192.6z M92.4,189.6l-1.6-4.7h0l-1.6,4.7H92.4z"/>
		<path d="M106.3,189.1l4.6,6h-4.8l-3.6-5.7h0v5.7h-3.8v-14.7h5.7c1,0,1.9,0.2,2.7,0.5c0.8,0.3,1.4,0.8,1.8,1.5
			c0.4,0.7,0.7,1.5,0.7,2.5c0,0.7-0.1,1.3-0.4,1.9c-0.3,0.6-0.6,1.1-1.1,1.5C107.6,188.7,107,189,106.3,189.1z M102.6,183.3v3.7h0.4
			c0.5,0,0.9,0,1.3-0.1c0.4-0.1,0.7-0.3,1-0.5c0.3-0.3,0.4-0.7,0.4-1.2c0-0.5-0.1-0.9-0.4-1.1c-0.2-0.3-0.6-0.5-0.9-0.5
			c-0.4-0.1-0.8-0.1-1.3-0.1H102.6z"/>
		<path d="M119.4,183.7h-4.5v2.4h4.3v3.2h-4.3v2.6h4.5v3.2H111v-14.7h8.4V183.7z"/>
		<path d="M132.4,183.7v11.5h-3.8v-11.5h-3.2v-3.2h10.1v3.2H132.4z"/>
		<path d="M143.6,189.1l4.6,6h-4.8l-3.6-5.7h0v5.7h-3.8v-14.7h5.7c1,0,1.9,0.2,2.7,0.5c0.8,0.3,1.4,0.8,1.8,1.5
			c0.4,0.7,0.7,1.5,0.7,2.5c0,0.7-0.1,1.3-0.4,1.9s-0.6,1.1-1.1,1.5C144.8,188.7,144.2,189,143.6,189.1z M139.8,183.3v3.7h0.4
			c0.5,0,0.9,0,1.3-0.1c0.4-0.1,0.7-0.3,1-0.5c0.3-0.3,0.4-0.7,0.4-1.2c0-0.5-0.1-0.9-0.4-1.1c-0.2-0.3-0.6-0.5-0.9-0.5
			c-0.4-0.1-0.8-0.1-1.3-0.1H139.8z"/>
		<path d="M152.1,180.4v14.7h-3.8v-14.7H152.1z"/>
		<path d="M162.6,192.6h-5.3l-1,2.6h-4.1l5.7-14.7h4.2l5.5,14.7h-4.1L162.6,192.6z M161.6,189.6L160,185h0l-1.6,4.7H161.6z"/>
		<path d="M174,186.9h7.6c0,0.4,0,0.8,0,1.1s-0.1,0.7-0.1,1c-0.1,0.6-0.2,1.2-0.4,1.8c-0.1,0.3-0.2,0.6-0.4,0.9s-0.3,0.6-0.5,0.9
			c-1.4,1.9-3.4,2.9-6.1,2.9c-1.5,0-2.9-0.3-4.1-1c-1.2-0.6-2.1-1.6-2.8-2.8c-0.3-0.6-0.6-1.2-0.7-1.9c-0.2-0.7-0.2-1.4-0.2-2.1
			c0-1.2,0.2-2.2,0.6-3.2c0.4-1,0.9-1.8,1.6-2.5s1.6-1.2,2.5-1.6c1-0.4,2.1-0.6,3.2-0.6c1,0,1.9,0.2,2.8,0.5
			c0.8,0.3,1.6,0.8,2.2,1.4c0.6,0.6,1.2,1.4,1.6,2.3l-3.6,1.5c-0.3-0.7-0.7-1.3-1.2-1.7c-0.6-0.4-1.2-0.6-1.9-0.6
			c-0.8,0-1.5,0.2-2.1,0.7s-1,1-1.3,1.7c-0.3,0.7-0.4,1.5-0.4,2.2c0,0.8,0.2,1.5,0.5,2.2c0.3,0.7,0.8,1.3,1.3,1.7
			c0.6,0.4,1.3,0.7,2.1,0.7c0.5,0,1-0.1,1.5-0.3s0.8-0.5,1.1-0.9s0.4-0.9,0.5-1.4H174V186.9z"/>
		<path d="M190.8,183.7h-4.5v2.4h4.3v3.2h-4.3v2.6h4.5v3.2h-8.4v-14.7h8.4V183.7z"/>
	</g>
	<g>
		<path class="st3" d="M16.2,192.6H11l-1,2.6H5.9l5.7-14.7h4.2l5.5,14.7h-4.1L16.2,192.6z M15.2,189.6l-1.6-4.7h0l-1.6,4.7H15.2z"/>
		<path class="st3" d="M31,180.8v4.6c-0.4-0.5-0.9-0.9-1.5-1.2c-0.6-0.3-1.2-0.4-1.9-0.4c-0.8,0-1.4,0.2-2,0.5
			c-0.6,0.4-1.1,0.8-1.4,1.5c-0.3,0.6-0.5,1.3-0.5,2.1c0,0.8,0.2,1.4,0.5,2.1c0.3,0.6,0.8,1.1,1.4,1.4s1.3,0.5,2.1,0.5
			c0.6,0,1.2-0.1,1.8-0.4s1.1-0.7,1.5-1.1v4.6c-0.9,0.3-1.5,0.4-1.9,0.5c-0.4,0.1-0.9,0.1-1.4,0.1c-1,0-2-0.2-3-0.6
			c-0.9-0.4-1.8-0.9-2.6-1.6c-1.6-1.4-2.4-3.3-2.4-5.6c0-1,0.2-2,0.6-2.9c0.4-0.9,0.9-1.8,1.6-2.5c0.5-0.5,1-0.9,1.6-1.3
			c0.6-0.4,1.2-0.6,1.9-0.8s1.4-0.3,2-0.3C28.7,180,29.8,180.3,31,180.8z"/>
		<path class="st3" d="M41.4,180.4h3.8v8.3c0,0.8,0,1.5-0.1,2c-0.1,0.6-0.2,1.1-0.4,1.7s-0.6,1-1,1.5c-0.4,0.4-0.9,0.7-1.4,0.9
			s-1.1,0.4-1.7,0.5c-0.6,0.1-1.2,0.2-1.8,0.2c-1,0-1.9-0.1-2.7-0.4c-0.9-0.3-1.6-0.7-2.2-1.2c-0.4-0.4-0.8-0.9-1-1.5
			s-0.4-1.1-0.4-1.7c0-0.3,0-0.6-0.1-0.9c0-0.4,0-0.7,0-1.1v-8.3h3.8v7.8c0,0.8,0.1,1.5,0.2,2.1s0.3,1,0.7,1.4
			c0.4,0.4,0.9,0.6,1.7,0.6s1.3-0.2,1.7-0.6c0.4-0.4,0.6-0.8,0.7-1.4s0.2-1.2,0.2-2.1V180.4z"/>
		<path class="st3" d="M52.5,183.7v11.5h-3.8v-11.5h-3.2v-3.2h10.1v3.2H52.5z"/>
		<path class="st3" d="M64.4,183.7h-4.5v2.4h4.3v3.2h-4.3v2.6h4.5v3.2h-8.4v-14.7h8.4V183.7z"/>
		<path class="st3" d="M83.1,180.8v4.6c-0.4-0.5-0.9-0.9-1.5-1.2c-0.6-0.3-1.2-0.4-1.9-0.4c-0.8,0-1.4,0.2-2,0.5
			c-0.6,0.4-1.1,0.8-1.4,1.5c-0.3,0.6-0.5,1.3-0.5,2.1c0,0.8,0.2,1.4,0.5,2.1c0.3,0.6,0.8,1.1,1.4,1.4s1.3,0.5,2.1,0.5
			c0.6,0,1.2-0.1,1.8-0.4c0.6-0.3,1.1-0.7,1.5-1.1v4.6c-0.9,0.3-1.5,0.4-1.9,0.5c-0.4,0.1-0.9,0.1-1.4,0.1c-1,0-2-0.2-3-0.6
			c-0.9-0.4-1.8-0.9-2.6-1.6c-1.6-1.4-2.4-3.3-2.4-5.6c0-1,0.2-2,0.6-2.9c0.4-0.9,0.9-1.8,1.6-2.5c0.5-0.5,1-0.9,1.6-1.3
			c0.6-0.4,1.2-0.6,1.9-0.8c0.7-0.2,1.4-0.3,2-0.3C80.7,180,81.9,180.3,83.1,180.8z"/>
		<path class="st3" d="M93.5,192.6h-5.3l-1,2.6h-4.1l5.7-14.7H93l5.5,14.7h-4.1L93.5,192.6z M92.4,189.6l-1.6-4.7h0l-1.6,4.7H92.4z"
			/>
		<path class="st3" d="M106.3,189.1l4.6,6h-4.8l-3.6-5.7h0v5.7h-3.8v-14.7h5.7c1,0,1.9,0.2,2.7,0.5c0.8,0.3,1.4,0.8,1.8,1.5
			c0.4,0.7,0.7,1.5,0.7,2.5c0,0.7-0.1,1.3-0.4,1.9c-0.3,0.6-0.6,1.1-1.1,1.5C107.6,188.7,107,189,106.3,189.1z M102.6,183.3v3.7h0.4
			c0.5,0,0.9,0,1.3-0.1c0.4-0.1,0.7-0.3,1-0.5c0.3-0.3,0.4-0.7,0.4-1.2c0-0.5-0.1-0.9-0.4-1.1c-0.2-0.3-0.6-0.5-0.9-0.5
			c-0.4-0.1-0.8-0.1-1.3-0.1H102.6z"/>
		<path class="st3" d="M119.4,183.7h-4.5v2.4h4.3v3.2h-4.3v2.6h4.5v3.2H111v-14.7h8.4V183.7z"/>
		<path class="st3" d="M132.4,183.7v11.5h-3.8v-11.5h-3.2v-3.2h10.1v3.2H132.4z"/>
		<path class="st3" d="M143.6,189.1l4.6,6h-4.8l-3.6-5.7h0v5.7h-3.8v-14.7h5.7c1,0,1.9,0.2,2.7,0.5c0.8,0.3,1.4,0.8,1.8,1.5
			c0.4,0.7,0.7,1.5,0.7,2.5c0,0.7-0.1,1.3-0.4,1.9s-0.6,1.1-1.1,1.5C144.8,188.7,144.2,189,143.6,189.1z M139.8,183.3v3.7h0.4
			c0.5,0,0.9,0,1.3-0.1c0.4-0.1,0.7-0.3,1-0.5c0.3-0.3,0.4-0.7,0.4-1.2c0-0.5-0.1-0.9-0.4-1.1c-0.2-0.3-0.6-0.5-0.9-0.5
			c-0.4-0.1-0.8-0.1-1.3-0.1H139.8z"/>
		<path class="st3" d="M152.1,180.4v14.7h-3.8v-14.7H152.1z"/>
		<path class="st3" d="M162.6,192.6h-5.3l-1,2.6h-4.1l5.7-14.7h4.2l5.5,14.7h-4.1L162.6,192.6z M161.6,189.6L160,185h0l-1.6,4.7
			H161.6z"/>
		<path class="st3" d="M174,186.9h7.6c0,0.4,0,0.8,0,1.1s-0.1,0.7-0.1,1c-0.1,0.6-0.2,1.2-0.4,1.8c-0.1,0.3-0.2,0.6-0.4,0.9
			s-0.3,0.6-0.5,0.9c-1.4,1.9-3.4,2.9-6.1,2.9c-1.5,0-2.9-0.3-4.1-1c-1.2-0.6-2.1-1.6-2.8-2.8c-0.3-0.6-0.6-1.2-0.7-1.9
			c-0.2-0.7-0.2-1.4-0.2-2.1c0-1.2,0.2-2.2,0.6-3.2c0.4-1,0.9-1.8,1.6-2.5s1.6-1.2,2.5-1.6c1-0.4,2.1-0.6,3.2-0.6
			c1,0,1.9,0.2,2.8,0.5c0.8,0.3,1.6,0.8,2.2,1.4c0.6,0.6,1.2,1.4,1.6,2.3l-3.6,1.5c-0.3-0.7-0.7-1.3-1.2-1.7
			c-0.6-0.4-1.2-0.6-1.9-0.6c-0.8,0-1.5,0.2-2.1,0.7s-1,1-1.3,1.7c-0.3,0.7-0.4,1.5-0.4,2.2c0,0.8,0.2,1.5,0.5,2.2
			c0.3,0.7,0.8,1.3,1.3,1.7c0.6,0.4,1.3,0.7,2.1,0.7c0.5,0,1-0.1,1.5-0.3s0.8-0.5,1.1-0.9s0.4-0.9,0.5-1.4H174V186.9z"/>
		<path class="st3" d="M190.8,183.7h-4.5v2.4h4.3v3.2h-4.3v2.6h4.5v3.2h-8.4v-14.7h8.4V183.7z"/>
	</g>
	<path class="st3" d="M27.1,150.7v4.6c-0.4-0.5-0.9-0.9-1.5-1.2c-0.6-0.3-1.2-0.4-1.9-0.4c-0.8,0-1.4,0.2-2,0.5
		c-0.6,0.4-1.1,0.8-1.4,1.5c-0.3,0.6-0.5,1.3-0.5,2.1c0,0.8,0.2,1.4,0.5,2.1c0.3,0.6,0.8,1.1,1.4,1.4c0.6,0.3,1.3,0.5,2.1,0.5
		c0.6,0,1.2-0.1,1.8-0.4c0.6-0.3,1.1-0.7,1.5-1.1v4.6c-0.9,0.3-1.5,0.4-1.9,0.5c-0.4,0.1-0.9,0.1-1.4,0.1c-1,0-2-0.2-3-0.6
		c-0.9-0.4-1.8-0.9-2.6-1.6c-1.6-1.4-2.4-3.3-2.4-5.6c0-1,0.2-2,0.6-2.9c0.4-0.9,0.9-1.8,1.6-2.5c0.5-0.5,1-0.9,1.6-1.3
		c0.6-0.4,1.2-0.6,1.9-0.8c0.7-0.2,1.4-0.3,2-0.3C24.8,150,25.9,150.2,27.1,150.7z"/>
	<path class="st3" d="M175.1,153.2v11.5h-3.8v-11.5h-3.2V150h10.1v3.2H175.1z"/>
	<rect x="1" y="174.4" class="st4" width="195.9" height="3.2"/>
	<circle class="st5" cx="98.1" cy="112.4" r="46.8"/>
	<g>
		<path class="st1" d="M74.2,112.3c-5.9-3.4-11.7-6.7-17.5-10.1c4-7,8-13.9,12.1-20.9c5.8,3.4,11.6,6.7,17.5,10.1
			c0-6.8,0-13.4,0-20.2c8.1,0,16.1,0,24.2,0c0,6.7,0,13.4,0,20.2c5.9-3.4,11.7-6.7,17.5-10.1c4,7,8,13.9,12,20.9
			c-5.8,3.4-11.6,6.7-17.5,10.1c0.3,0.2,0.4,0.3,0.6,0.4c5.4,3.1,10.9,6.3,16.3,9.4c0.4,0.3,0.5,0.4,0.2,0.9
			c-3.8,6.5-7.6,13.1-11.4,19.6c-0.4,0.6-0.4,0.6-1,0.3c-5.4-3.1-10.8-6.2-16.2-9.4c-0.2-0.1-0.3-0.2-0.6-0.3c0,0.3-0.1,0.6-0.1,0.8
			c0,6.2,0,12.4,0,18.6c0,0.8,0,0.8-0.8,0.8c-7.5,0-15,0-22.5,0c-0.7,0-0.7,0-0.7-0.7c0-6.2,0-12.4,0-18.6c0-0.2,0-0.5,0-0.9
			c-5.9,3.4-11.7,6.8-17.5,10.1c-4-7-8-13.9-12.1-20.9C62.5,119.1,68.3,115.7,74.2,112.3z"/>
		<path d="M121.7,112.3c0.2-0.1,0.4-0.2,0.6-0.3c5.5-3.2,11.1-6.4,16.6-9.6c0.4-0.2,0.5-0.4,0.2-0.8c-3.7-6.3-7.4-12.7-11-19
			c-0.1-0.2-0.2-0.4-0.4-0.6c-5.9,3.4-11.8,6.8-17.7,10.2c0-6.9,0-13.7,0-20.5c-7.8,0-15.5,0-23.3,0c0,6.8,0,13.6,0,20.5
			c-6-3.4-11.8-6.8-17.8-10.3c-3.9,6.7-7.7,13.4-11.6,20.1c5.9,3.4,11.8,6.8,17.8,10.3c-5.9,3.4-11.8,6.8-17.7,10.2
			c0.1,0.2,0.2,0.4,0.3,0.5c3.7,6.4,7.3,12.7,11,19.1c0.3,0.5,0.5,0.5,0.9,0.2c5.5-3.2,11.1-6.4,16.6-9.6c0.1-0.1,0.3-0.2,0.5-0.3
			c0,0.3,0,0.5,0,0.6c0,6.4,0,12.8,0,19.1c0,0.7,0,0.7,0.7,0.7c7.3,0,14.6,0,21.9,0c0.7,0,0.7,0,0.7-0.8c0-6.4,0-12.7,0-19.1
			c0-0.2,0-0.4,0-0.7c0.2,0.1,0.4,0.2,0.5,0.3c5.5,3.2,11.1,6.4,16.6,9.6c0.5,0.3,0.7,0.2,0.9-0.2c3.7-6.4,7.3-12.8,11-19.1
			c0.2-0.4,0.2-0.6-0.2-0.9c-3.4-1.9-6.8-3.9-10.2-5.9C126.4,115,124.1,113.7,121.7,112.3z"/>
		<g>
			<path class="st5" d="M87.4,153.5c-1,0-1.2-0.2-1.2-1.2l0-18.9l-2.6,1.5c-4.6,2.7-9.2,5.3-13.8,8c-0.2,0.1-0.4,0.2-0.7,0.2
				c-0.5,0-0.8-0.5-0.9-0.7c-2.8-4.9-5.6-9.8-8.4-14.7l-2.5-4.4c-0.1-0.1-0.1-0.2-0.2-0.4l-0.3-0.6L74,112.3l-17.4-10.1l12.1-21
				l17.4,10.1V71.2h24.3v20.1l17.4-10l0.4,0.6c0.1,0.1,0.2,0.3,0.3,0.4l2.7,4.6c2.8,4.8,5.6,9.6,8.4,14.4c0.1,0.2,0.3,0.5,0.2,0.9
				c-0.1,0.3-0.4,0.5-0.6,0.7c-4.7,2.7-9.5,5.5-14.2,8.2l-2.3,1.3l8.7,5c2.6,1.5,5.2,3,7.8,4.5c0.2,0.1,0.5,0.3,0.6,0.7
				c0.1,0.3-0.1,0.6-0.2,0.9c-4,6.8-7.6,13.1-11,19.1c-0.1,0.2-0.4,0.7-0.9,0.7c-0.3,0-0.5-0.1-0.7-0.2c-4.6-2.7-9.1-5.3-13.7-8
				l-2.7-1.5l0,18.9c0,0.5,0,0.8-0.2,1c-0.2,0.2-0.5,0.2-1,0.2L87.4,153.5z"/>
			<path class="st1" d="M110,71.7c0,6.8,0,13.6,0,20.5c6-3.4,11.8-6.8,17.7-10.2c0.1,0.2,0.3,0.4,0.4,0.6c3.7,6.4,7.3,12.7,11,19
				c0.3,0.4,0.2,0.6-0.2,0.8c-5.6,3.2-11.1,6.4-16.6,9.6c-0.2,0.1-0.3,0.2-0.6,0.3c2.4,1.4,4.7,2.7,7,4.1c3.4,2,6.8,3.9,10.2,5.9
				c0.4,0.2,0.5,0.4,0.2,0.9c-3.7,6.4-7.4,12.7-11,19.1c-0.2,0.3-0.3,0.4-0.5,0.4c-0.1,0-0.3-0.1-0.5-0.2
				c-5.5-3.2-11.1-6.4-16.6-9.6c-0.1-0.1-0.3-0.2-0.5-0.3c0,0.3,0,0.5,0,0.7c0,6.4,0,12.7,0,19.1c0,0.7,0,0.8-0.7,0.8c0,0,0,0,0,0
				c-7.3,0-14.6,0-21.9,0c-0.7,0-0.7,0-0.7-0.7c0-6.4,0-12.8,0-19.1c0-0.2,0-0.4,0-0.6c-0.2,0.1-0.4,0.2-0.5,0.3
				c-5.5,3.2-11.1,6.4-16.6,9.6c-0.2,0.1-0.3,0.2-0.5,0.2c-0.2,0-0.3-0.1-0.5-0.4c-3.6-6.4-7.3-12.7-11-19.1
				c-0.1-0.2-0.2-0.3-0.3-0.5c5.9-3.4,11.8-6.8,17.7-10.2c-5.9-3.4-11.8-6.8-17.8-10.3c3.9-6.7,7.7-13.4,11.6-20.1
				c5.9,3.4,11.8,6.8,17.8,10.3c0-6.9,0-13.7,0-20.5C94.5,71.7,102.2,71.7,110,71.7 M111,70.7h-1H86.7h-1v1v18.7L69.4,81l-0.9-0.5
				l-0.5,0.9L64,88.5l-7.5,13l-0.5,0.9l0.9,0.5l1.6,0.9l14.6,8.5l-7,4.1l-9.2,5.3l-0.8,0.5l0.5,0.9l0.1,0.2c0.1,0.1,0.1,0.3,0.2,0.4
				l2.5,4.4c2.8,4.8,5.6,9.8,8.4,14.7c0.1,0.2,0.5,0.9,1.4,0.9c0.4,0,0.7-0.2,1-0.3c4.6-2.7,9.2-5.3,13.7-7.9l1.9-1.1l0,3.9l0,14.2
				c0,0.5,0,1,0.4,1.4c0.4,0.4,0.9,0.4,1.4,0.4l21.9,0h0c0.5,0,1,0,1.4-0.4c0.4-0.4,0.4-0.9,0.4-1.4l0-13.9l0-4.1l2,1.2
				c4.5,2.6,9.1,5.3,13.6,7.9c0.2,0.1,0.6,0.3,1,0.3c0.6,0,1-0.3,1.4-0.9c3.4-6,7-12.2,11-19.1c0.2-0.3,0.4-0.7,0.2-1.3
				c-0.1-0.5-0.5-0.8-0.8-1c-2.6-1.5-5.2-3-7.8-4.5l-2.4-1.4l-4.7-2.7l-0.8-0.4l1.8-1.1c4.6-2.7,9.2-5.3,13.9-8
				c0.2-0.1,0.7-0.4,0.9-1c0.2-0.6-0.1-1.1-0.2-1.3c-2.8-4.8-5.6-9.6-8.3-14.3L129,82c-0.1-0.2-0.2-0.3-0.3-0.4
				c0-0.1-0.1-0.1-0.1-0.2l-0.5-0.8l-0.8,0.5l-6.3,3.6l-9.9,5.7V71.7V70.7L111,70.7z"/>
		</g>
		<path class="st5" d="M87.5,93.6C81.4,90,75.3,86.6,69.2,83c-3.6,6.3-7.2,12.5-10.8,18.7c6.1,3.5,12.2,7,18.3,10.6
			c-6.1,3.6-12.2,7-18.3,10.6c3.6,6.2,7.2,12.4,10.8,18.7c6.1-3.5,12.2-7,18.3-10.6c0,0.4,0,0.6,0,0.8c0,6.5,0,13,0,19.6
			c0,0.7,0,0.7,0.7,0.7c6.7,0,13.4,0,20,0c0.7,0,0.7,0,0.7-0.8c0-6.5,0-13,0-19.5c0-0.2,0-0.5,0-0.8c0.4,0.2,0.7,0.3,0.9,0.5
			c5.6,3.2,11.2,6.4,16.8,9.7c0.4,0.2,0.6,0.2,0.9-0.2c3.3-5.8,6.7-11.6,10.1-17.4c0.1-0.2,0.2-0.4,0.4-0.7
			c-6.1-3.5-12.1-7-18.3-10.6c6.2-3.6,12.2-7.1,18.3-10.6c-3.6-6.3-7.2-12.4-10.8-18.7c-6.1,3.5-12.1,7-18.3,10.6
			c0-7.1,0-14.1,0-21.1c-7.2,0-14.4,0-21.6,0C87.5,79.5,87.5,86.5,87.5,93.6z"/>
		<radialGradient id="SVGID_2_" cx="98.3179" cy="112.3021" r="39.8311" gradientUnits="userSpaceOnUse">
			<stop  offset="0" style="stop-color:#FFFFFF"/>
			<stop  offset="0.6254" style="stop-color:#522E91"/>
		</radialGradient>
		<path class="st6" d="M87.5,93.6c0-7.1,0-14.1,0-21.1c7.2,0,14.4,0,21.6,0c0,7,0,14,0,21.1c6.2-3.6,12.2-7,18.3-10.6
			c3.6,6.2,7.2,12.4,10.8,18.7c-6.1,3.5-12.1,7-18.3,10.6c6.1,3.6,12.2,7,18.3,10.6c-0.1,0.2-0.2,0.5-0.4,0.7
			c-3.4,5.8-6.7,11.6-10.1,17.4c-0.3,0.4-0.5,0.5-0.9,0.2c-5.6-3.2-11.2-6.5-16.8-9.7c-0.3-0.2-0.6-0.3-0.9-0.5c0,0.3,0,0.6,0,0.8
			c0,6.5,0,13,0,19.5c0,0.8,0,0.8-0.7,0.8c-6.7,0-13.4,0-20,0c-0.7,0-0.7,0-0.7-0.7c0-6.5,0-13,0-19.6c0-0.2,0-0.5,0-0.8
			c-6.2,3.6-12.2,7.1-18.3,10.6c-3.6-6.2-7.2-12.4-10.8-18.7c6.1-3.5,12.1-7,18.3-10.6c-6.1-3.5-12.2-7-18.3-10.6
			C62,95.5,65.6,89.3,69.2,83C75.3,86.6,81.4,90,87.5,93.6z"/>
		<path d="M100.8,89.2c-0.6,0.1-1.1,0.3-1.6,0.3c-0.5,0-1.1,0-1.6-0.1c-0.6-0.1-0.5,0.3-0.5,0.7c0,2.3,0,4.6,0.1,7
			c0.1,2.3,0.2,4.7,0.3,7c0.1,1.5,0.1,3,0.1,4.5c0,0.2,0.2,0.4,0.3,0.6c0.2-0.1,0.4-0.2,0.6-0.3c0.4-0.5,0.8-1,1.2-1.4
			c0.7-0.6,0.9-1.3,0.9-2.2c0.1-4.5,0.2-9.1,0.3-13.6C100.8,90.9,100.8,90,100.8,89.2z"/>
		<path d="M96.9,122.2c0.1,0,0.2-0.1,0.3-0.1c0-0.6,0-1.2,0-1.8c0-0.4-0.2-0.8-0.4-1.1c-0.9-1.3-0.7-3.1,0.4-4.2
			c0.8-0.8,1.5-1.6,2.2-2.3c0.1-0.1,0.1-0.2,0.2-0.3c1.2-1.6,2.4-3.2,3.6-4.8c1.4-2,0.7-3.7-1-4.9c-0.4-0.2-0.6-0.1-0.8,0.3
			c-0.3,0.7-0.3,1.5-0.3,2.2c0,0.6-0.1,1.3-0.5,1.8c-0.6,0.7-1.3,1.4-1.8,2.2c-0.5,0.9-1.2,1.7-1.9,2.5c-1,1.1-1.6,2.4-2.2,3.7
			c-0.2,0.3-0.2,0.7-0.2,1.1c-0.1,1.4,0.4,2.7,1.2,3.8C95.9,121,96.4,121.6,96.9,122.2z"/>
		<path d="M97.4,85.9c0-0.1,0-0.1,0-0.2c-0.2,0-0.5-0.1-0.7-0.1c-1.4,0.1-2.6,0.9-3.8,1.6c-0.5,0.3-0.9,0.9-1.2,1.5
			c-1.3,2.4-1.3,4.8-0.1,7.3c1,2,2.4,3.7,3.9,5.3c0.2,0.2,0.4,0.3,0.7,0.5c0.1-0.3,0.2-0.5,0.3-0.8c0.1-0.4,0.1-0.8,0-1.2
			c-0.1-0.4-0.2-1-0.5-1.3c-1-0.9-1.6-2-2-3.2c-0.5-1.3-0.7-2.6-0.6-4c0.1-1.3,0.6-2.4,1.8-3.1c0.5-0.3,1-0.3,1.5,0.1
			c0.9,0.7,1.9,0.9,3,0.6c0.6-0.2,0.7-0.5,0.3-1c-0.6-0.7-1.2-1.2-1.8-1.9c0,0-0.1,0-0.2,0c0.1,0.2,0.2,0.3,0.2,0.4
			c0.1,0.3,0.1,0.6,0.1,0.9c-0.3,0-0.7,0.1-1,0c-0.7-0.2-0.8-0.8-0.3-1.3C97.3,86.1,97.4,86,97.4,85.9z"/>
		<path d="M100.1,112.9c-0.1,0-0.1,0-0.2-0.1c-0.2,0.1-0.3,0.2-0.5,0.3c-0.4,0.4-0.7,0.9-1.2,1.4c-0.4,0.4-0.5,0.8-0.5,1.4
			c0.1,2.9,0.2,5.7,0.2,8.6c0,1.3,0.1,2.7,0.2,4c0,0.1,0.1,0.3,0.1,0.5c0.2-0.2,0.4-0.3,0.5-0.5c0.3-0.4,0.6-0.8,0.8-1.2
			c0.2-0.3,0.3-0.7,0.3-1.1c0-0.7-0.1-1.5-0.1-2.2c0.1-2.5,0.2-5.1,0.2-7.6C100.1,115.2,100.1,114.1,100.1,112.9z"/>
		<path d="M97.7,138.3c0.1-0.3,0.1-0.4,0.1-0.6c0.1-1.2,0.1-2.4,0.2-3.6c0-0.2,0-0.4,0.1-0.6c0.5-1,1-2.1,1.5-3.1
			c0.1-0.2,0.2-0.5,0.4-0.6c0.9-0.7,1.4-1.7,2-2.6c0.4-0.6,0.5-1.3,0.2-2c-0.3-1-0.8-1.8-1.6-2.5c-0.1,0.3-0.1,0.4-0.1,0.6
			c0,0.8,0,1.7-0.1,2.5c0,0.4-0.1,0.8-0.3,1.1c-1,1.6-2,3.3-2.9,4.9c-0.5,0.8-0.8,1.7-0.7,2.6c0.2,1.1,0.5,2.2,0.7,3.3
			C97.4,137.9,97.5,138.1,97.7,138.3z"/>
		<path d="M100.6,87.8c0.1-0.2,0.1-0.3,0.1-0.3c0.1-1.4,0.2-2.8,0.2-4.2c0-0.6-0.1-1.2-0.8-1.5c-0.1-0.1-0.2-0.2-0.2-0.3
			c-0.4-0.6-1.3-0.9-1.8-0.6c-0.8,0.5-1.3,1.2-1.6,2.1c-0.3,1.1-0.1,1.7,0.9,2.2c0.4,0.2,0.8,0.5,1.2,0.8
			C99.3,86.5,99.9,87.1,100.6,87.8z"/>
		<path d="M99.6,132.2c-0.1,0-0.2,0-0.2-0.1c-0.1,0.2-0.3,0.4-0.4,0.7c-0.2,0.9-0.5,1.8-0.5,2.7c-0.1,1,0.1,2,0.2,3
			c0.1,1.6,0.1,3.1,0.1,4.7c0,0.3,0.1,0.5,0.2,1c0.2-0.2,0.4-0.3,0.4-0.4C99.6,139.9,99.6,136,99.6,132.2z"/>
		<path class="st7" d="M100.8,89.2c0,0.8,0,1.7,0,2.5c-0.1,4.5-0.2,9.1-0.3,13.6c0,0.9-0.2,1.6-0.9,2.2c-0.5,0.4-0.8,1-1.2,1.4
			c-0.1,0.1-0.4,0.2-0.6,0.3c-0.1-0.2-0.2-0.4-0.3-0.6c-0.1-1.5-0.1-3-0.1-4.5c-0.1-2.3-0.3-4.7-0.3-7c-0.1-2.3-0.1-4.6-0.1-7
			c0-0.3,0-0.7,0.5-0.7c0.5,0.1,1.1,0.1,1.6,0.1C99.7,89.5,100.2,89.3,100.8,89.2z"/>
		<path class="st8" d="M96.9,122.2c-0.5-0.6-1-1.2-1.4-1.8c-0.8-1.1-1.3-2.4-1.2-3.8c0-0.4,0.1-0.7,0.2-1.1c0.6-1.3,1.2-2.6,2.2-3.7
			c0.7-0.8,1.5-1.6,1.9-2.5c0.5-0.9,1.2-1.5,1.8-2.2c0.4-0.5,0.5-1.2,0.5-1.8c0-0.8,0-1.5,0.3-2.2c0.2-0.4,0.4-0.6,0.8-0.3
			c1.8,1.2,2.4,2.9,1,4.9c-1.2,1.6-2.4,3.2-3.6,4.8c-0.1,0.1-0.1,0.2-0.2,0.3c-0.7,0.8-1.4,1.6-2.2,2.3c-1.1,1.1-1.3,3-0.4,4.2
			c0.2,0.3,0.3,0.7,0.4,1.1c0.1,0.6,0,1.2,0,1.8C97.1,122.2,97,122.2,96.9,122.2z"/>
		<path class="st8" d="M97.4,85.9c-0.1,0.1-0.2,0.2-0.2,0.3c-0.5,0.5-0.4,1.1,0.3,1.3c0.3,0.1,0.6,0,1,0c0-0.3-0.1-0.6-0.1-0.9
			c0-0.1-0.1-0.3-0.2-0.4c0.1,0,0.2,0,0.2,0c0.6,0.6,1.2,1.2,1.8,1.9c0.4,0.5,0.2,0.8-0.3,1c-1.1,0.3-2.1,0.1-3-0.6
			c-0.5-0.4-1-0.4-1.5-0.1c-1.2,0.7-1.7,1.8-1.8,3.1c-0.2,1.4,0.1,2.7,0.6,4c0.5,1.2,1.1,2.3,2,3.2c0.3,0.3,0.4,0.8,0.5,1.3
			c0.1,0.4,0,0.8,0,1.2c0,0.3-0.2,0.5-0.3,0.8c-0.2-0.2-0.5-0.3-0.7-0.5C94,99.7,92.7,98,91.7,96c-1.2-2.4-1.2-4.9,0.1-7.3
			c0.3-0.6,0.7-1.2,1.2-1.5c1.2-0.7,2.3-1.5,3.8-1.6c0.2,0,0.5,0,0.7,0.1C97.4,85.8,97.4,85.8,97.4,85.9z"/>
		<path class="st7" d="M100.1,112.9c0,1.2,0,2.3,0,3.5c-0.1,2.5-0.2,5.1-0.2,7.6c0,0.7,0.1,1.5,0.1,2.2c0,0.4-0.1,0.7-0.3,1.1
			c-0.2,0.4-0.5,0.8-0.8,1.2c-0.1,0.2-0.3,0.3-0.5,0.5c-0.1-0.2-0.1-0.4-0.1-0.5c-0.1-1.3-0.1-2.7-0.2-4c-0.1-2.9-0.2-5.7-0.2-8.6
			c0-0.5,0.1-1,0.5-1.4c0.4-0.4,0.8-0.9,1.2-1.4c0.1-0.1,0.3-0.2,0.5-0.3C100,112.9,100.1,112.9,100.1,112.9z"/>
		<path class="st8" d="M97.7,138.3c-0.2-0.3-0.3-0.4-0.3-0.6c-0.3-1.1-0.6-2.2-0.7-3.3c-0.1-0.9,0.2-1.8,0.7-2.6
			c1-1.6,2-3.2,2.9-4.9c0.2-0.3,0.3-0.7,0.3-1.1c0.1-0.8,0-1.7,0.1-2.5c0-0.2,0.1-0.3,0.1-0.6c0.9,0.7,1.4,1.5,1.6,2.5
			c0.2,0.7,0.1,1.4-0.2,2c-0.6,0.9-1.1,1.9-2,2.6c-0.2,0.2-0.3,0.4-0.4,0.6c-0.5,1-1,2.1-1.5,3.1c-0.1,0.2-0.1,0.4-0.1,0.6
			c-0.1,1.2-0.1,2.4-0.2,3.6C97.8,137.9,97.8,138,97.7,138.3z"/>
		<path class="st7" d="M100.6,87.8c-0.7-0.6-1.3-1.2-2-1.8c-0.4-0.3-0.8-0.6-1.2-0.8c-1-0.6-1.2-1.2-0.9-2.2
			c0.3-0.9,0.9-1.6,1.6-2.1c0.5-0.3,1.4,0,1.8,0.6c0.1,0.1,0.1,0.3,0.2,0.3c0.6,0.3,0.8,0.9,0.8,1.5c0,1.4-0.1,2.8-0.2,4.2
			C100.8,87.5,100.7,87.6,100.6,87.8z"/>
		<path class="st7" d="M99.6,132.2c0.1,3.8,0,7.7-0.3,11.5c0,0.1-0.2,0.2-0.4,0.4c-0.1-0.4-0.2-0.7-0.2-1c0-1.6-0.1-3.1-0.1-4.7
			c0-1-0.2-2-0.2-3c0.1-0.9,0.3-1.8,0.5-2.7c0.1-0.2,0.2-0.4,0.4-0.7C99.4,132.1,99.5,132.2,99.6,132.2z"/>
		<path class="st1" d="M100.8,89.2c0,0.8,0,1.7,0,2.5c-0.1,4.5-0.2,9.1-0.3,13.6c0,0.9-0.2,1.6-0.9,2.2c-0.5,0.4-0.8,1-1.2,1.4
			c-0.1,0.1-0.4,0.2-0.6,0.3c-0.1-0.2-0.2-0.4-0.3-0.6c-0.1-1.5-0.1-3-0.1-4.5c-0.1-2.3-0.3-4.7-0.3-7c-0.1-2.3-0.1-4.6-0.1-7
			c0-0.3,0-0.7,0.5-0.7c0.5,0.1,1.1,0.1,1.6,0.1C99.7,89.5,100.2,89.3,100.8,89.2z"/>
		<path class="st2" d="M96.9,122.2c-0.5-0.6-1-1.2-1.4-1.8c-0.8-1.1-1.3-2.4-1.2-3.8c0-0.4,0.1-0.7,0.2-1.1c0.6-1.3,1.2-2.6,2.2-3.7
			c0.7-0.8,1.5-1.6,1.9-2.5c0.5-0.9,1.2-1.5,1.8-2.2c0.4-0.5,0.5-1.2,0.5-1.8c0-0.8,0-1.5,0.3-2.2c0.2-0.4,0.4-0.6,0.8-0.3
			c1.8,1.2,2.4,2.9,1,4.9c-1.2,1.6-2.4,3.2-3.6,4.8c-0.1,0.1-0.1,0.2-0.2,0.3c-0.7,0.8-1.4,1.6-2.2,2.3c-1.1,1.1-1.3,3-0.4,4.2
			c0.2,0.3,0.3,0.7,0.4,1.1c0.1,0.6,0,1.2,0,1.8C97.1,122.2,97,122.2,96.9,122.2z"/>
		<path class="st2" d="M97.4,85.9c-0.1,0.1-0.2,0.2-0.2,0.3c-0.5,0.5-0.4,1.1,0.3,1.3c0.3,0.1,0.6,0,1,0c0-0.3-0.1-0.6-0.1-0.9
			c0-0.1-0.1-0.3-0.2-0.4c0.1,0,0.2,0,0.2,0c0.6,0.6,1.2,1.2,1.8,1.9c0.4,0.5,0.2,0.8-0.3,1c-1.1,0.3-2.1,0.1-3-0.6
			c-0.5-0.4-1-0.4-1.5-0.1c-1.2,0.7-1.7,1.8-1.8,3.1c-0.2,1.4,0.1,2.7,0.6,4c0.5,1.2,1.1,2.3,2,3.2c0.3,0.3,0.4,0.8,0.5,1.3
			c0.1,0.4,0,0.8,0,1.2c0,0.3-0.2,0.5-0.3,0.8c-0.2-0.2-0.5-0.3-0.7-0.5C94,99.7,92.7,98,91.7,96c-1.2-2.4-1.2-4.9,0.1-7.3
			c0.3-0.6,0.7-1.2,1.2-1.5c1.2-0.7,2.3-1.5,3.8-1.6c0.2,0,0.5,0,0.7,0.1C97.4,85.8,97.4,85.8,97.4,85.9z"/>
		<path class="st1" d="M100.1,112.9c0,1.2,0,2.3,0,3.5c-0.1,2.5-0.2,5.1-0.2,7.6c0,0.7,0.1,1.5,0.1,2.2c0,0.4-0.1,0.7-0.3,1.1
			c-0.2,0.4-0.5,0.8-0.8,1.2c-0.1,0.2-0.3,0.3-0.5,0.5c-0.1-0.2-0.1-0.4-0.1-0.5c-0.1-1.3-0.1-2.7-0.2-4c-0.1-2.9-0.2-5.7-0.2-8.6
			c0-0.5,0.1-1,0.5-1.4c0.4-0.4,0.8-0.9,1.2-1.4c0.1-0.1,0.3-0.2,0.5-0.3C100,112.9,100.1,112.9,100.1,112.9z"/>
		<path class="st2" d="M97.7,138.3c-0.2-0.3-0.3-0.4-0.3-0.6c-0.3-1.1-0.6-2.2-0.7-3.3c-0.1-0.9,0.2-1.8,0.7-2.6
			c1-1.6,2-3.2,2.9-4.9c0.2-0.3,0.3-0.7,0.3-1.1c0.1-0.8,0-1.7,0.1-2.5c0-0.2,0.1-0.3,0.1-0.6c0.9,0.7,1.4,1.5,1.6,2.5
			c0.2,0.7,0.1,1.4-0.2,2c-0.6,0.9-1.1,1.9-2,2.6c-0.2,0.2-0.3,0.4-0.4,0.6c-0.5,1-1,2.1-1.5,3.1c-0.1,0.2-0.1,0.4-0.1,0.6
			c-0.1,1.2-0.1,2.4-0.2,3.6C97.8,137.9,97.8,138,97.7,138.3z"/>
		<path class="st1" d="M100.6,87.8c-0.7-0.6-1.3-1.2-2-1.8c-0.4-0.3-0.8-0.6-1.2-0.8c-1-0.6-1.2-1.2-0.9-2.2
			c0.3-0.9,0.9-1.6,1.6-2.1c0.5-0.3,1.4,0,1.8,0.6c0.1,0.1,0.1,0.3,0.2,0.3c0.6,0.3,0.8,0.9,0.8,1.5c0,1.4-0.1,2.8-0.2,4.2
			C100.8,87.5,100.7,87.6,100.6,87.8z"/>
		<path class="st1" d="M99.6,132.2c0.1,3.8,0,7.7-0.3,11.5c0,0.1-0.2,0.2-0.4,0.4c-0.1-0.4-0.2-0.7-0.2-1c0-1.6-0.1-3.1-0.1-4.7
			c0-1-0.2-2-0.2-3c0.1-0.9,0.3-1.8,0.5-2.7c0.1-0.2,0.2-0.4,0.4-0.7C99.4,132.1,99.5,132.2,99.6,132.2z"/>
	</g>
	<path class="st3" d="M100.7,28.6H96l-0.9,2.3h-3.6l5.1-13.1h3.7l5,13.1h-3.6L100.7,28.6z M99.8,26l-1.4-4.2h0L97,26H99.8z"/>
	<path class="st5" d="M26.5,150.4v4.6c-0.4-0.5-0.9-0.9-1.5-1.2s-1.2-0.4-1.9-0.4c-0.8,0-1.4,0.2-2,0.5c-0.6,0.4-1.1,0.8-1.4,1.5
		c-0.3,0.6-0.5,1.3-0.5,2.1c0,0.8,0.2,1.4,0.5,2.1c0.3,0.6,0.8,1.1,1.4,1.4c0.6,0.3,1.3,0.5,2.1,0.5c0.6,0,1.2-0.1,1.8-0.4
		c0.6-0.3,1.1-0.7,1.5-1.1v4.6c-0.9,0.3-1.5,0.4-1.9,0.5s-0.9,0.1-1.4,0.1c-1,0-2-0.2-3-0.6c-0.9-0.4-1.8-0.9-2.6-1.6
		c-1.6-1.4-2.4-3.3-2.4-5.6c0-1,0.2-2,0.6-2.9s0.9-1.8,1.6-2.5c0.5-0.5,1-0.9,1.6-1.3c0.6-0.4,1.2-0.6,1.9-0.8
		c0.7-0.2,1.4-0.3,2-0.3C24.1,149.6,25.3,149.9,26.5,150.4z"/>
	<path class="st5" d="M174.4,152.9v11.5h-3.8v-11.5h-3.2v-3.2h10.1v3.2H174.4z"/>
	<path class="st5" d="M100.1,28.3h-4.7l-0.9,2.3h-3.6L96,17.5h3.7l5,13.1H101L100.1,28.3z M99.2,25.7l-1.4-4.2h0l-1.4,4.2H99.2z"/>
</g>
</svg>
