<?xml version="1.0" encoding="utf-8"?>
<!-- Generator: Adobe Illustrator 15.0.2, SVG Export Plug-In . SVG Version: 6.00 Build 0)  -->
<!DOCTYPE svg PUBLIC "-//W3C//DTD SVG 1.1//EN" "http://www.w3.org/Graphics/SVG/1.1/DTD/svg11.dtd">
<svg version="1.1" id="Layer_1" xmlns="http://www.w3.org/2000/svg" xmlns:xlink="http://www.w3.org/1999/xlink" x="0px" y="0px"
	 width="62px" height="62px" viewBox="0 0 62 62" enable-background="new 0 0 62 62" xml:space="preserve">
<g>
	<g>
		<g>
			<path d="M42.594,44.088c-0.324,0-1.116-0.072-1.62-0.145c-1.08-0.144-1.296-0.936-1.404-1.979c-0.18-1.512-0.18-4.355-0.18-7.811
				v-3.149c-0.65-0.702-0.648-1.952,0-2.731v-0.456c0-5.615,0-6.623,0.073-7.775c0.072-1.26,0.36-1.872,1.332-2.052
				c0.432-0.072,0.648-0.108,0.9-0.108c0.144,0,0.288-0.072,0.288-0.216c0-0.216-0.18-0.288-0.575-0.288
				c-1.08,0-3.348,0.108-3.528,0.108c-0.18,0-2.447-0.108-4.067-0.108c-0.396,0-0.576,0.072-0.576,0.288
				c0,0.144,0.144,0.216,0.288,0.216c0.324,0,0.936,0.036,1.224,0.108c1.188,0.252,1.476,0.828,1.547,2.052
				c0.073,1.152,0.073,2.16,0.073,7.775v6.335c0,3.455,0,6.299-0.181,7.811c-0.144,1.044-0.323,1.836-1.043,1.979
				c-0.324,0.072-0.757,0.145-1.08,0.145c-0.216,0-0.288,0.107-0.288,0.216c0,0.216,0.18,0.288,0.576,0.288
				c1.08,0,3.347-0.108,3.527-0.108c0.181,0,2.448,0.108,4.428,0.108c0.396,0,0.575-0.108,0.575-0.288
				C42.881,44.195,42.81,44.088,42.594,44.088z"/>
			<path d="M61.311,44.088c-0.323,0-1.115-0.072-1.619-0.145c-1.081-0.144-1.296-0.936-1.404-1.979
				c-0.181-1.512-0.181-4.355-0.181-7.811v-6.335c0-5.615,0-6.623,0.073-7.775c0.072-1.26,0.359-1.872,1.331-2.052
				c0.433-0.072,0.648-0.108,0.9-0.108c0.145,0,0.288-0.072,0.288-0.216c0-0.216-0.18-0.288-0.576-0.288
				c-1.079,0-3.347,0.108-3.527,0.108c-0.181,0-2.448-0.108-4.068-0.108c-0.396,0-0.576,0.072-0.576,0.288
				c0,0.144,0.145,0.216,0.288,0.216c0.324,0,0.937,0.036,1.224,0.108c1.188,0.252,1.476,0.828,1.547,2.052
				c0.073,1.152,0.073,2.16,0.073,7.775v0.453c0.836,0.734,0.835,2.224,0,3.003v2.88c0,3.455,0,6.299-0.18,7.811
				c-0.144,1.044-0.324,1.836-1.044,1.979c-0.324,0.072-0.756,0.145-1.08,0.145c-0.216,0-0.288,0.107-0.288,0.216
				c0,0.216,0.18,0.288,0.576,0.288c1.08,0,3.347-0.108,3.528-0.108c0.18,0,2.448,0.108,4.427,0.108
				c0.396,0,0.576-0.108,0.576-0.288C61.599,44.195,61.527,44.088,61.311,44.088z"/>
			<polygon points="39.39,28.273 38.63,28.273 38.63,30.986 39.39,31.004 			"/>
			<rect x="55.084" y="28.271" width="0.775" height="3.003"/>
		</g>
	</g>
	<g>
		<g>
			<linearGradient id="SVGID_1_" gradientUnits="userSpaceOnUse" x1="33.2349" y1="30.9854" x2="61.5991" y2="30.9854">
				<stop  offset="0" style="stop-color:#5B8E3F"/>
				<stop  offset="1" style="stop-color:#30ACC4"/>
			</linearGradient>
			<path fill="url(#SVGID_1_)" d="M42.594,44.088c-0.324,0-1.116-0.072-1.62-0.145c-1.08-0.144-1.296-0.936-1.404-1.979
				c-0.18-1.512-0.18-4.355-0.18-7.811v-3.149c-0.65-0.702-0.648-1.952,0-2.731v-0.456c0-5.615,0-6.623,0.073-7.775
				c0.072-1.26,0.36-1.872,1.332-2.052c0.432-0.072,0.648-0.108,0.9-0.108c0.144,0,0.288-0.072,0.288-0.216
				c0-0.216-0.18-0.288-0.575-0.288c-1.08,0-3.348,0.108-3.528,0.108c-0.18,0-2.447-0.108-4.067-0.108
				c-0.396,0-0.576,0.072-0.576,0.288c0,0.144,0.144,0.216,0.288,0.216c0.324,0,0.936,0.036,1.224,0.108
				c1.188,0.252,1.476,0.828,1.547,2.052c0.073,1.152,0.073,2.16,0.073,7.775v6.335c0,3.455,0,6.299-0.181,7.811
				c-0.144,1.044-0.323,1.836-1.043,1.979c-0.324,0.072-0.757,0.145-1.08,0.145c-0.216,0-0.288,0.107-0.288,0.216
				c0,0.216,0.18,0.288,0.576,0.288c1.08,0,3.347-0.108,3.527-0.108c0.181,0,2.448,0.108,4.428,0.108
				c0.396,0,0.575-0.108,0.575-0.288C42.881,44.195,42.81,44.088,42.594,44.088z"/>
			<linearGradient id="SVGID_2_" gradientUnits="userSpaceOnUse" x1="33.2349" y1="30.9854" x2="61.5991" y2="30.9854">
				<stop  offset="0" style="stop-color:#5B8E3F"/>
				<stop  offset="1" style="stop-color:#30ACC4"/>
			</linearGradient>
			<path fill="url(#SVGID_2_)" d="M61.311,44.088c-0.323,0-1.115-0.072-1.619-0.145c-1.081-0.144-1.296-0.936-1.404-1.979
				c-0.181-1.512-0.181-4.355-0.181-7.811v-6.335c0-5.615,0-6.623,0.073-7.775c0.072-1.26,0.359-1.872,1.331-2.052
				c0.433-0.072,0.648-0.108,0.9-0.108c0.145,0,0.288-0.072,0.288-0.216c0-0.216-0.18-0.288-0.576-0.288
				c-1.079,0-3.347,0.108-3.527,0.108c-0.181,0-2.448-0.108-4.068-0.108c-0.396,0-0.576,0.072-0.576,0.288
				c0,0.144,0.145,0.216,0.288,0.216c0.324,0,0.937,0.036,1.224,0.108c1.188,0.252,1.476,0.828,1.547,2.052
				c0.073,1.152,0.073,2.16,0.073,7.775v0.453c0.836,0.734,0.835,2.224,0,3.003v2.88c0,3.455,0,6.299-0.18,7.811
				c-0.144,1.044-0.324,1.836-1.044,1.979c-0.324,0.072-0.756,0.145-1.08,0.145c-0.216,0-0.288,0.107-0.288,0.216
				c0,0.216,0.18,0.288,0.576,0.288c1.08,0,3.347-0.108,3.528-0.108c0.18,0,2.448,0.108,4.427,0.108
				c0.396,0,0.576-0.108,0.576-0.288C61.599,44.195,61.527,44.088,61.311,44.088z"/>
			<linearGradient id="SVGID_3_" gradientUnits="userSpaceOnUse" x1="33.2349" y1="30.9854" x2="61.5991" y2="30.9854">
				<stop  offset="0" style="stop-color:#5B8E3F"/>
				<stop  offset="1" style="stop-color:#30ACC4"/>
			</linearGradient>
			<polygon fill="url(#SVGID_3_)" points="39.39,28.273 38.63,28.273 38.63,30.986 39.39,31.004 			"/>
			<linearGradient id="SVGID_4_" gradientUnits="userSpaceOnUse" x1="33.2349" y1="30.9854" x2="61.5991" y2="30.9854">
				<stop  offset="0" style="stop-color:#5B8E3F"/>
				<stop  offset="1" style="stop-color:#30ACC4"/>
			</linearGradient>
			<rect x="55.084" y="28.271" fill="url(#SVGID_4_)" width="0.775" height="3.003"/>
		</g>
	</g>
</g>
<g>
	<g>
		<line fill="#522E91" x1="30.544" y1="29.614" x2="55.318" y2="29.614"/>
		<linearGradient id="SVGID_5_" gradientUnits="userSpaceOnUse" x1="30.5439" y1="29.6138" x2="55.3179" y2="29.6138">
			<stop  offset="0" style="stop-color:#522E91"/>
			<stop  offset="1" style="stop-color:#5B8E3F"/>
		</linearGradient>
		<rect x="30.544" y="28.764" fill="url(#SVGID_5_)" width="24.774" height="1.7"/>
	</g>
	<g>
		<line fill="#522E91" x1="15.128" y1="29.614" x2="0.401" y2="29.614"/>
		<polygon fill="#522E91" points="15.128,30.464 0.401,29.614 15.128,28.764 		"/>
	</g>
	<polygon fill="#522E91" points="15.135,28.754 20.922,44.621 19.071,44.621 13.775,30.316 	"/>
	<polygon fill="#522E91" points="21.131,44.621 29.266,22.536 27.354,22.536 19.254,44.621 	"/>
	<polygon fill="#522E91" points="29.478,22.536 27.626,22.536 30.52,30.47 31.781,28.758 	"/>
</g>
</svg>
