<?xml version="1.0" encoding="utf-8"?>
<!-- Generator: Adobe Illustrator 15.0.2, SVG Export Plug-In . SVG Version: 6.00 Build 0)  -->
<!DOCTYPE svg PUBLIC "-//W3C//DTD SVG 1.1//EN" "http://www.w3.org/Graphics/SVG/1.1/DTD/svg11.dtd">
<svg version="1.1" id="Layer_1" xmlns="http://www.w3.org/2000/svg" xmlns:xlink="http://www.w3.org/1999/xlink" x="0px" y="0px"
	 width="167.761px" height="70.767px" viewBox="0 0 167.761 70.767" enable-background="new 0 0 167.761 70.767"
	 xml:space="preserve">
<g>
	<g>
		<g>
			<path fill="#63A343" d="M6.229,65.276C1.236,60.853,0,55.057,0,50.227c0-3.406,1.185-9.354,5.765-13.879
				c3.089-3.051,7.773-5.44,15.699-5.44c2.06,0,4.942,0.152,7.464,0.61c1.957,0.356,3.604,0.661,5.251,0.763
				c0.566,0.051,0.669,0.254,0.669,0.559c0,0.407-0.155,1.017-0.258,2.847c-0.102,1.678-0.102,4.475-0.153,5.236
				c-0.052,0.763-0.155,1.068-0.464,1.068c-0.36,0-0.412-0.356-0.412-1.068c0-1.982-0.822-4.067-2.162-5.186
				c-1.802-1.525-5.765-2.898-10.295-2.898c-6.846,0-10.037,1.983-11.838,3.711c-3.758,3.559-4.634,8.084-4.634,13.27
				c0,9.711,7.568,18.608,18.583,18.608c3.86,0,6.897-0.457,8.956-2.542c1.081-1.119,1.75-3.355,1.905-4.271
				c0.103-0.559,0.205-0.763,0.514-0.763c0.258,0,0.362,0.356,0.362,0.763c0,0.356-0.619,4.779-1.133,6.507
				c-0.31,0.966-0.412,1.068-1.339,1.475c-2.059,0.814-5.97,1.169-9.265,1.169C15.495,70.767,10.295,68.886,6.229,65.276z"/>
			<path fill="#63A343" d="M47.528,57.435c0,6.435,0.103,9.061,0.926,9.831c0.721,0.721,2.472,1.031,6.023,1.031
				c2.369,0,4.375-0.052,5.457-1.339c0.567-0.668,0.927-1.595,1.081-2.47c0.052-0.309,0.207-0.565,0.464-0.565
				c0.205,0,0.309,0.205,0.309,0.669c0,0.462-0.309,3.087-0.669,4.375c-0.309,1.029-0.464,1.184-2.882,1.184
				c-3.243,0-5.766-0.051-7.876-0.155c-2.059-0.052-3.603-0.103-4.941-0.103c-0.207,0-0.979,0-1.853,0.051
				c-0.927,0.052-1.905,0.104-2.625,0.104c-0.464,0-0.721-0.104-0.721-0.36c0-0.155,0.104-0.36,0.36-0.36
				c0.412,0,0.978-0.104,1.39-0.207c0.875-0.206,0.978-1.029,1.184-2.315c0.257-1.802,0.257-5.251,0.257-9.471v-7.722
				c0-6.794,0-8.03-0.103-9.42c-0.102-1.493-0.36-2.214-1.852-2.419c-0.36-0.052-1.132-0.104-1.544-0.104
				c-0.155,0-0.36-0.206-0.36-0.36c0-0.257,0.206-0.36,0.721-0.36c2.059,0,4.889,0.103,5.147,0.103c0.206,0,3.603-0.103,4.993-0.103
				c0.464,0,0.721,0.103,0.721,0.36c0,0.154-0.206,0.309-0.36,0.309c-0.309,0-0.978,0.051-1.493,0.103
				c-1.338,0.257-1.595,0.927-1.698,2.471c-0.052,1.39-0.052,2.625-0.052,9.42V57.435z"/>
			<path fill="#63A343" d="M73.64,57.333c0,4.22,0,7.669,0.206,9.471c0.155,1.286,0.31,2.11,1.647,2.315
				c0.669,0.103,1.646,0.207,2.059,0.207c0.258,0,0.36,0.206,0.36,0.36c0,0.206-0.205,0.36-0.721,0.36
				c-2.522,0-5.456-0.155-5.661-0.155c-0.259,0-3.089,0.155-4.479,0.155c-0.463,0-0.72-0.104-0.72-0.36
				c0-0.155,0.103-0.36,0.36-0.36c0.412,0,0.977-0.104,1.389-0.207c0.875-0.206,1.029-1.029,1.185-2.315
				c0.205-1.802,0.257-5.251,0.257-9.471v-7.722c0-6.794,0-8.03-0.104-9.42c-0.102-1.493-0.462-2.162-1.441-2.368
				c-0.514-0.103-1.081-0.154-1.39-0.154c-0.206,0-0.36-0.206-0.36-0.36c0-0.257,0.207-0.36,0.721-0.36
				c1.493,0,4.323,0.103,4.582,0.103c0.205,0,3.139-0.103,4.529-0.103c0.515,0,0.721,0.103,0.721,0.36c0,0.154-0.206,0.36-0.36,0.36
				c-0.309,0-0.618,0-1.133,0.104c-1.234,0.257-1.491,0.875-1.595,2.419c-0.052,1.39-0.052,2.625-0.052,9.42V57.333z"/>
			<path fill="#63A343" d="M87.844,64.075c0.103,3.603,0.515,4.684,1.75,4.993c0.824,0.207,1.854,0.258,2.265,0.258
				c0.206,0,0.36,0.154,0.36,0.36c0,0.257-0.309,0.36-0.824,0.36c-2.574,0-4.375-0.155-4.787-0.155
				c-0.412,0-2.315,0.155-4.375,0.155c-0.462,0-0.721-0.052-0.721-0.36c0-0.207,0.155-0.36,0.36-0.36
				c0.36,0,1.184-0.052,1.854-0.258c1.132-0.309,1.287-1.492,1.287-5.456V38.543c0-1.75,0.257-2.213,0.618-2.213
				c0.515,0,1.288,0.875,1.75,1.338c0.721,0.721,7.31,7.722,14.31,14.928c4.479,4.633,9.318,9.833,10.707,11.274l-0.463-21.929
				c-0.052-2.832-0.309-3.809-1.698-4.067c-0.824-0.154-1.853-0.206-2.213-0.206c-0.309,0-0.36-0.257-0.36-0.412
				c0-0.257,0.36-0.309,0.874-0.309c2.06,0,4.222,0.103,4.737,0.103c0.514,0,2.007-0.103,3.86-0.103
				c0.463,0,0.824,0.051,0.824,0.309c0,0.154-0.207,0.412-0.515,0.412c-0.205,0-0.565,0-1.081,0.104
				c-1.493,0.309-1.596,1.184-1.596,3.809l-0.102,25.635c0,2.883-0.051,3.14-0.36,3.14c-0.463,0-0.927-0.36-3.449-2.677
				c-0.463-0.412-7-6.846-11.788-11.839c-5.25-5.508-10.346-10.861-11.736-12.405L87.844,64.075z"/>
			<path fill="#63A343" d="M129.68,57.333c0,4.22,0,7.669,0.206,9.471c0.155,1.286,0.31,2.11,1.648,2.315
				c0.669,0.103,1.646,0.207,2.059,0.207c0.258,0,0.36,0.206,0.36,0.36c0,0.206-0.206,0.36-0.721,0.36
				c-2.522,0-5.457-0.155-5.662-0.155c-0.258,0-3.089,0.155-4.479,0.155c-0.464,0-0.721-0.104-0.721-0.36
				c0-0.155,0.104-0.36,0.36-0.36c0.412,0,0.978-0.104,1.39-0.207c0.875-0.206,1.029-1.029,1.184-2.315
				c0.205-1.802,0.257-5.251,0.257-9.471v-7.722c0-6.794,0-8.03-0.103-9.42c-0.102-1.493-0.462-2.162-1.441-2.368
				c-0.514-0.103-1.081-0.154-1.39-0.154c-0.205,0-0.36-0.206-0.36-0.36c0-0.257,0.207-0.36,0.721-0.36
				c1.493,0,4.324,0.103,4.582,0.103c0.205,0,3.139-0.103,4.529-0.103c0.516,0,0.721,0.103,0.721,0.36c0,0.154-0.205,0.36-0.36,0.36
				c-0.309,0-0.617,0-1.133,0.104c-1.234,0.257-1.491,0.875-1.595,2.419c-0.052,1.39-0.052,2.625-0.052,9.42V57.333z"/>
			<path fill="#63A343" d="M142.368,65.929c-4.427-3.81-5.508-8.802-5.508-12.972c0-2.934,1.081-8.031,5.096-11.942
				c2.729-2.625,6.847-4.685,13.796-4.685c1.801,0,4.375,0.155,6.589,0.515c1.698,0.309,3.139,0.617,4.632,0.669
				c0.464,0,0.566,0.206,0.566,0.463c0,0.36-0.102,0.876-0.206,2.471c-0.051,1.441-0.051,3.861-0.103,4.478
				c-0.052,0.67-0.257,0.927-0.514,0.927c-0.309,0-0.36-0.309-0.36-0.927c0-1.698-0.72-3.449-1.905-4.375
				c-1.596-1.338-4.891-2.419-8.905-2.419c-5.816,0-8.596,1.544-10.192,3.037c-3.346,3.088-4.066,7.001-4.066,11.427
				c0,8.392,6.64,15.854,16.318,15.854c3.396,0,5.662-0.257,7.463-2.059c0.979-0.979,1.596-2.831,1.75-3.655
				c0.104-0.463,0.155-0.619,0.464-0.619c0.207,0,0.412,0.31,0.412,0.619s-0.617,4.119-1.081,5.61
				c-0.257,0.824-0.36,0.979-1.133,1.288c-1.853,0.721-5.251,0.978-8.185,0.978C150.501,70.613,145.92,69.018,142.368,65.929z"/>
		</g>
		<g>
			<path fill="#63A343" d="M70.501,12.324c0-4.519,0-5.341-0.068-6.265c-0.068-0.993-0.239-1.472-1.232-1.609
				c-0.239-0.034-0.753-0.068-1.026-0.068c-0.104,0-0.24-0.137-0.24-0.24c0-0.171,0.136-0.24,0.479-0.24
				c1.369,0,3.32,0.068,3.492,0.068c0.206,0,6.504,0.034,7.189,0c0.582-0.034,1.13-0.137,1.369-0.171
				c0.137-0.034,0.274-0.137,0.411-0.137c0.103,0,0.137,0.137,0.137,0.274c0,0.205-0.171,0.547-0.24,1.369
				c-0.034,0.274-0.103,1.575-0.171,1.917c-0.034,0.137-0.137,0.308-0.273,0.308c-0.171,0-0.24-0.137-0.24-0.377
				c0-0.205-0.034-0.684-0.171-1.026c-0.205-0.479-0.514-0.685-2.157-0.891c-0.513-0.068-4.005-0.103-4.348-0.103
				c-0.137,0-0.171,0.103-0.171,0.308v7.908c0,0.206,0,0.309,0.171,0.309c0.376,0,4.348,0,5.032-0.069
				c0.719-0.068,1.165-0.103,1.472-0.411c0.205-0.206,0.342-0.376,0.445-0.376c0.103,0,0.171,0.068,0.171,0.24
				s-0.171,0.65-0.24,1.609c-0.068,0.582-0.137,1.678-0.137,1.883c0,0.24-0.068,0.548-0.274,0.548c-0.137,0-0.206-0.102-0.206-0.274
				c0-0.274,0-0.582-0.137-0.958c-0.103-0.411-0.377-0.753-1.541-0.89c-0.821-0.103-4.04-0.137-4.553-0.137
				c-0.171,0-0.205,0.103-0.205,0.206v2.431c0,0.992-0.035,4.382,0,4.963c0.068,1.952,0.616,2.329,3.594,2.329
				c0.788,0,2.225,0,3.013-0.309c0.787-0.342,1.198-0.856,1.369-2.02c0.069-0.342,0.137-0.445,0.309-0.445
				c0.17,0,0.205,0.24,0.205,0.445c0,0.206-0.24,2.191-0.411,2.808c-0.206,0.753-0.514,0.753-1.678,0.753
				c-2.259,0-4.005-0.069-5.238-0.103c-1.267-0.069-2.054-0.069-2.499-0.069c-0.068,0-0.65,0-1.301,0.035
				c-0.582,0.034-1.267,0.068-1.746,0.068c-0.308,0-0.479-0.068-0.479-0.239c0-0.104,0.068-0.24,0.24-0.24
				c0.274,0,0.65-0.103,0.924-0.138c0.583-0.102,0.651-0.685,0.788-1.54c0.171-1.198,0.171-3.493,0.171-6.299V12.324z"/>
			<path fill="#63A343" d="M113.47,17.527c0,4.28,0.068,6.026,0.616,6.539c0.479,0.479,1.643,0.686,4.005,0.686
				c1.575,0,2.91-0.034,3.628-0.891c0.377-0.445,0.616-1.061,0.719-1.643c0.035-0.206,0.137-0.376,0.309-0.376
				c0.137,0,0.205,0.137,0.205,0.445c0,0.307-0.205,2.053-0.445,2.91c-0.206,0.685-0.308,0.788-1.917,0.788
				c-2.156,0-3.834-0.034-5.238-0.103c-1.369-0.034-2.396-0.069-3.286-0.069c-0.137,0-0.65,0-1.232,0.035
				c-0.617,0.034-1.267,0.068-1.746,0.068c-0.309,0-0.479-0.068-0.479-0.239c0-0.104,0.068-0.24,0.24-0.24
				c0.274,0,0.65-0.069,0.924-0.138c0.583-0.136,0.651-0.685,0.788-1.54c0.171-1.198,0.171-3.493,0.171-6.299v-5.135
				c0-4.519,0-5.341-0.068-6.265c-0.068-0.993-0.24-1.472-1.233-1.609c-0.239-0.034-0.753-0.068-1.026-0.068
				c-0.103,0-0.24-0.137-0.24-0.24c0-0.171,0.137-0.24,0.479-0.24c1.369,0,3.252,0.068,3.423,0.068c0.137,0,2.396-0.068,3.321-0.068
				c0.308,0,0.479,0.068,0.479,0.24c0,0.103-0.137,0.205-0.24,0.205c-0.205,0-0.65,0.035-0.993,0.069
				c-0.89,0.171-1.061,0.616-1.129,1.643c-0.034,0.924-0.034,1.746-0.034,6.265V17.527z"/>
			<path fill="#63A343" d="M133.739,17.459c0,2.807,0,5.101,0.137,6.299c0.103,0.855,0.24,1.403,1.164,1.54
				c0.411,0.069,1.096,0.138,1.369,0.138c0.206,0,0.24,0.136,0.24,0.24c0,0.136-0.137,0.239-0.479,0.239
				c-1.643,0-3.56-0.103-3.731-0.103c-0.137,0-2.226,0.103-3.115,0.103c-0.342,0-0.479-0.068-0.479-0.239
				c0-0.104,0.068-0.206,0.24-0.206c0.274,0,0.616-0.069,0.89-0.137c0.617-0.137,0.788-0.719,0.891-1.574
				C131,22.561,131,20.266,131,17.459V5.237l-4.347,0.068c-1.883,0.035-2.602,0.24-3.047,0.925
				c-0.343,0.514-0.377,0.719-0.479,0.924c-0.069,0.24-0.171,0.274-0.308,0.274c-0.068,0-0.206-0.068-0.206-0.24
				c0-0.308,0.582-2.91,0.65-3.149c0.034-0.171,0.206-0.548,0.308-0.548c0.206,0,0.514,0.24,1.335,0.343
				c0.855,0.103,2.02,0.137,2.362,0.137h11.365c0.993,0,1.677-0.068,2.156-0.137c0.446-0.068,0.72-0.137,0.856-0.137
				c0.137,0,0.137,0.171,0.137,0.342c0,0.89-0.103,2.978-0.103,3.321c0,0.239-0.137,0.376-0.274,0.376s-0.206-0.103-0.24-0.513
				l-0.034-0.308c-0.103-0.89-0.753-1.541-3.629-1.609l-3.766-0.068V17.459z"/>
			<g>
				<path fill="#63A343" d="M151.842,25.436c-0.274,0-0.924-0.069-1.369-0.138c-0.89-0.136-0.993-0.685-1.096-1.54
					c-0.137-1.198-0.137-3.424-0.137-6.231v-2.526c-0.512-0.685-0.513-1.722,0-2.395v-0.214c0-4.519,0-5.409,0.034-6.333
					c0.069-1.027,0.24-1.438,1.061-1.609c0.343-0.068,0.548-0.068,0.753-0.068c0.103,0,0.24-0.137,0.24-0.24
					c0-0.171-0.137-0.24-0.479-0.24c-0.924,0-2.841,0.068-2.978,0.068c-0.172,0-2.089-0.068-3.458-0.068
					c-0.343,0-0.479,0.068-0.479,0.24c0,0.103,0.137,0.24,0.24,0.24c0.274,0,0.788,0.034,1.027,0.068
					c0.992,0.137,1.164,0.616,1.231,1.609c0.068,0.924,0.068,1.746,0.068,6.265v5.135c0,2.807,0,5.101-0.171,6.299
					c-0.137,0.855-0.205,1.403-0.787,1.54c-0.274,0.069-0.65,0.138-0.924,0.138c-0.171,0-0.24,0.136-0.24,0.24
					c0,0.171,0.171,0.239,0.479,0.239c0.924,0,2.841-0.103,3.013-0.103c0.137,0,2.054,0.103,3.731,0.103
					c0.343,0,0.479-0.103,0.479-0.239C152.082,25.572,152.014,25.436,151.842,25.436z"/>
				<path fill="#63A343" d="M167.487,25.436c-0.24,0-0.924-0.069-1.335-0.138c-0.924-0.136-0.992-0.685-1.095-1.54
					c-0.137-1.198-0.171-3.493-0.171-6.299v-5.135c0-4.519,0-5.341,0.068-6.265c0.069-1.027,0.24-1.438,1.027-1.609
					c0.377-0.068,0.548-0.068,0.753-0.068c0.138,0,0.274-0.137,0.274-0.24c0-0.171-0.171-0.24-0.513-0.24
					c-0.89,0-2.807,0.068-2.979,0.068c-0.136,0-2.087-0.068-3.423-0.068c-0.342,0-0.479,0.068-0.479,0.24
					c0,0.103,0.103,0.24,0.24,0.24c0.274,0,0.788,0.034,1.027,0.068c0.993,0.137,1.129,0.616,1.198,1.609
					c0.034,0.924,0.069,1.814,0.069,6.333v0.012c0.761,0.655,0.664,1.884,0,2.635v2.489c0,2.808,0,4.999-0.138,6.197
					c-0.102,0.855-0.205,1.438-0.821,1.574c-0.274,0.069-0.617,0.138-0.89,0.138c-0.172,0-0.24,0.136-0.24,0.24
					c0,0.171,0.136,0.239,0.479,0.239c0.89,0,2.841-0.103,2.978-0.103c0.172,0,2.089,0.103,3.732,0.103
					c0.343,0,0.514-0.103,0.514-0.239C167.761,25.572,167.692,25.436,167.487,25.436z"/>
				<polygon fill="#63A343" points="149.241,12.606 148.667,12.606 148.667,15.019 149.241,15.001 				"/>
				<rect x="162.147" y="12.404" fill="#63A343" width="0.712" height="2.635"/>
				<path fill="#63A343" d="M162.147,15.067v0.571c0.003,0.001,0.007,0.002,0.011,0.004c0.351-0.093,0.759-0.213,0.848-0.416
					c0.383-1.048,0.173-1.735-0.628-2.06c-0.079-0.015-0.155-0.042-0.23-0.071v0.362c0,0.171-0.069,0.171-0.171,0.171h-12.564
					c-0.102,0-0.171,0-0.171-0.171v-0.351c-0.081,0.046-0.154,0.104-0.242,0.136c0.049,0.614-0.151,1.798-0.027,1.955
					c0.102,0.13,0.186,0.257,0.269,0.385v-0.516c0-0.137,0.069-0.171,0.171-0.171h12.564
					C162.078,14.896,162.147,14.93,162.147,15.067z"/>
			</g>
			<g>
				<path fill="#5B8E3F" d="M48.338,25.402c-0.308,0-1.061-0.069-1.541-0.138c-1.027-0.136-1.232-0.89-1.335-1.882
					c-0.171-1.438-0.171-4.143-0.171-7.429v-2.995c-0.618-0.667-0.617-1.856,0-2.597V9.928c0-5.34,0-6.299,0.069-7.395
					c0.068-1.198,0.342-1.78,1.266-1.951c0.411-0.068,0.617-0.103,0.856-0.103c0.137,0,0.274-0.068,0.274-0.205
					C47.756,0.068,47.584,0,47.208,0c-1.027,0-3.184,0.103-3.355,0.103C43.683,0.103,41.525,0,39.985,0
					c-0.376,0-0.548,0.068-0.548,0.274c0,0.137,0.137,0.205,0.274,0.205c0.309,0,0.89,0.035,1.165,0.103
					c1.129,0.239,1.403,0.788,1.471,1.951c0.069,1.096,0.069,2.054,0.069,7.395v6.025c0,3.286,0,5.991-0.171,7.429
					c-0.137,0.993-0.308,1.746-0.992,1.882c-0.309,0.069-0.719,0.138-1.027,0.138c-0.205,0-0.274,0.102-0.274,0.205
					c0,0.205,0.171,0.274,0.548,0.274c1.027,0,3.184-0.103,3.355-0.103c0.171,0,2.328,0.103,4.211,0.103
					c0.376,0,0.547-0.103,0.547-0.274C48.612,25.504,48.543,25.402,48.338,25.402z"/>
				<path fill="#63A343" d="M66.14,25.402c-0.308,0-1.061-0.069-1.541-0.138c-1.027-0.136-1.232-0.89-1.335-1.882
					c-0.171-1.438-0.171-4.143-0.171-7.429V9.928c0-5.34,0-6.299,0.069-7.395c0.068-1.198,0.342-1.78,1.266-1.951
					c0.411-0.068,0.617-0.103,0.856-0.103c0.137,0,0.274-0.068,0.274-0.205C65.558,0.068,65.386,0,65.01,0
					c-1.027,0-3.184,0.103-3.354,0.103C61.484,0.103,59.327,0,57.787,0c-0.376,0-0.548,0.068-0.548,0.274
					c0,0.137,0.137,0.205,0.274,0.205c0.308,0,0.89,0.035,1.164,0.103c1.13,0.239,1.404,0.788,1.472,1.951
					c0.069,1.096,0.069,2.054,0.069,7.395v0.43c0.796,0.698,0.795,2.115,0,2.856v2.739c0,3.286,0,5.991-0.171,7.429
					c-0.137,0.993-0.308,1.746-0.993,1.882c-0.308,0.069-0.719,0.138-1.027,0.138c-0.206,0-0.274,0.102-0.274,0.205
					c0,0.205,0.171,0.274,0.547,0.274c1.027,0,3.184-0.103,3.355-0.103c0.171,0,2.328,0.103,4.21,0.103
					c0.376,0,0.548-0.103,0.548-0.274C66.414,25.504,66.345,25.402,66.14,25.402z"/>
				<polygon fill="#5B8E3F" points="45.291,10.361 44.569,10.361 44.569,12.94 45.291,12.958 				"/>
				<rect x="60.217" y="10.358" fill="#5B8E3F" width="0.737" height="2.856"/>
			</g>
			<g>
				<g>
					<path fill="#63A343" d="M106.381,25.436c-0.309,0-0.753-0.035-1.199-0.172c-0.65-0.205-1.472-0.582-2.567-3.183
						c-1.849-4.416-6.676-16.433-7.224-17.665c-0.308-0.65-0.411-1.062-0.719-1.062c-0.206,0-0.342,0.171-0.719,1.13l-7.087,18.212
						c-0.582,1.472-1.164,2.5-2.533,2.67c-0.239,0.034-0.685,0.069-0.89,0.069c-0.137,0-0.274,0.102-0.274,0.24
						c0,0.171,0.206,0.239,0.583,0.239c1.232,0,2.738-0.103,3.047-0.103c0.342,0,1.985,0.103,2.704,0.103
						c0.274,0,0.445-0.068,0.445-0.239c0-0.138-0.069-0.24-0.309-0.24h-0.274c-0.513,0-1.027-0.206-1.027-0.788
						c0-0.514,0.171-1.232,0.445-1.952l1.712-4.656c0-0.001,0.001-0.001,0.002-0.002c-0.429-0.57-0.213-1.568,0.633-1.694
						l2.789-7.923c0.171-0.445,0.342-0.445,0.514,0l2.947,7.892c0.842,0.12,1.062,1.098,0.653,1.673l2.699,6.663
						c0.206,0.479-0.103,0.719-0.274,0.788c-0.137,0.069-0.205,0.069-0.205,0.205c0,0.171,0.479,0.171,1.061,0.206
						c2.088,0.068,4.313,0.068,4.758,0.068c0.342,0,0.685-0.068,0.685-0.239S106.552,25.436,106.381,25.436z"/>
					<polygon fill="#63A343" points="91.131,16.344 90.329,16.163 89.868,17.753 90.497,18.041 					"/>
					<polygon fill="#63A343" points="97.38,16.313 98.033,17.986 98.651,17.738 98.016,16.059 					"/>
				</g>
				<polygon fill="#63A343" points="91.103,13.684 90.782,14.856 97.38,14.856 96.888,13.684 				"/>
			</g>
		</g>
	</g>
	<g>
		<g>
			<linearGradient id="SVGID_1_" gradientUnits="userSpaceOnUse" x1="0" y1="35.3838" x2="167.7611" y2="35.3838">
				<stop  offset="0" style="stop-color:#5B8E3F"/>
				<stop  offset="1" style="stop-color:#30ACC4"/>
			</linearGradient>
			<path fill="url(#SVGID_1_)" d="M6.229,65.276C1.236,60.853,0,55.057,0,50.227c0-3.406,1.185-9.354,5.765-13.879
				c3.089-3.051,7.773-5.44,15.699-5.44c2.06,0,4.942,0.152,7.464,0.61c1.957,0.356,3.604,0.661,5.251,0.763
				c0.566,0.051,0.669,0.254,0.669,0.559c0,0.407-0.155,1.017-0.258,2.847c-0.102,1.678-0.102,4.475-0.153,5.236
				c-0.052,0.763-0.155,1.068-0.464,1.068c-0.36,0-0.412-0.356-0.412-1.068c0-1.982-0.822-4.067-2.162-5.186
				c-1.802-1.525-5.765-2.898-10.295-2.898c-6.846,0-10.037,1.983-11.838,3.711c-3.758,3.559-4.634,8.084-4.634,13.27
				c0,9.711,7.568,18.608,18.583,18.608c3.86,0,6.897-0.457,8.956-2.542c1.081-1.119,1.75-3.355,1.905-4.271
				c0.103-0.559,0.205-0.763,0.514-0.763c0.258,0,0.362,0.356,0.362,0.763c0,0.356-0.619,4.779-1.133,6.507
				c-0.31,0.966-0.412,1.068-1.339,1.475c-2.059,0.814-5.97,1.169-9.265,1.169C15.495,70.767,10.295,68.886,6.229,65.276z"/>
			<linearGradient id="SVGID_2_" gradientUnits="userSpaceOnUse" x1="0" y1="35.3838" x2="167.7611" y2="35.3838">
				<stop  offset="0" style="stop-color:#5B8E3F"/>
				<stop  offset="1" style="stop-color:#30ACC4"/>
			</linearGradient>
			<path fill="url(#SVGID_2_)" d="M47.528,57.435c0,6.435,0.103,9.061,0.926,9.831c0.721,0.721,2.472,1.031,6.023,1.031
				c2.369,0,4.375-0.052,5.457-1.339c0.567-0.668,0.927-1.595,1.081-2.47c0.052-0.309,0.207-0.565,0.464-0.565
				c0.205,0,0.309,0.205,0.309,0.669c0,0.462-0.309,3.087-0.669,4.375c-0.309,1.029-0.464,1.184-2.882,1.184
				c-3.243,0-5.766-0.051-7.876-0.155c-2.059-0.052-3.603-0.103-4.941-0.103c-0.207,0-0.979,0-1.853,0.051
				c-0.927,0.052-1.905,0.104-2.625,0.104c-0.464,0-0.721-0.104-0.721-0.36c0-0.155,0.104-0.36,0.36-0.36
				c0.412,0,0.978-0.104,1.39-0.207c0.875-0.206,0.978-1.029,1.184-2.315c0.257-1.802,0.257-5.251,0.257-9.471v-7.722
				c0-6.794,0-8.03-0.103-9.42c-0.102-1.493-0.36-2.214-1.852-2.419c-0.36-0.052-1.132-0.104-1.544-0.104
				c-0.155,0-0.36-0.206-0.36-0.36c0-0.257,0.206-0.36,0.721-0.36c2.059,0,4.889,0.103,5.147,0.103c0.206,0,3.603-0.103,4.993-0.103
				c0.464,0,0.721,0.103,0.721,0.36c0,0.154-0.206,0.309-0.36,0.309c-0.309,0-0.978,0.051-1.493,0.103
				c-1.338,0.257-1.595,0.927-1.698,2.471c-0.052,1.39-0.052,2.625-0.052,9.42V57.435z"/>
			<linearGradient id="SVGID_3_" gradientUnits="userSpaceOnUse" x1="0" y1="35.3838" x2="167.7611" y2="35.3838">
				<stop  offset="0" style="stop-color:#5B8E3F"/>
				<stop  offset="1" style="stop-color:#30ACC4"/>
			</linearGradient>
			<path fill="url(#SVGID_3_)" d="M73.64,57.333c0,4.22,0,7.669,0.206,9.471c0.155,1.286,0.31,2.11,1.647,2.315
				c0.669,0.103,1.646,0.207,2.059,0.207c0.258,0,0.36,0.206,0.36,0.36c0,0.206-0.205,0.36-0.721,0.36
				c-2.522,0-5.456-0.155-5.661-0.155c-0.259,0-3.089,0.155-4.479,0.155c-0.463,0-0.72-0.104-0.72-0.36
				c0-0.155,0.103-0.36,0.36-0.36c0.412,0,0.977-0.104,1.389-0.207c0.875-0.206,1.029-1.029,1.185-2.315
				c0.205-1.802,0.257-5.251,0.257-9.471v-7.722c0-6.794,0-8.03-0.104-9.42c-0.102-1.493-0.462-2.162-1.441-2.368
				c-0.514-0.103-1.081-0.154-1.39-0.154c-0.206,0-0.36-0.206-0.36-0.36c0-0.257,0.207-0.36,0.721-0.36
				c1.493,0,4.323,0.103,4.582,0.103c0.205,0,3.139-0.103,4.529-0.103c0.515,0,0.721,0.103,0.721,0.36c0,0.154-0.206,0.36-0.36,0.36
				c-0.309,0-0.618,0-1.133,0.104c-1.234,0.257-1.491,0.875-1.595,2.419c-0.052,1.39-0.052,2.625-0.052,9.42V57.333z"/>
			<linearGradient id="SVGID_4_" gradientUnits="userSpaceOnUse" x1="0" y1="35.3838" x2="167.7611" y2="35.3838">
				<stop  offset="0" style="stop-color:#5B8E3F"/>
				<stop  offset="1" style="stop-color:#30ACC4"/>
			</linearGradient>
			<path fill="url(#SVGID_4_)" d="M87.844,64.075c0.103,3.603,0.515,4.684,1.75,4.993c0.824,0.207,1.854,0.258,2.265,0.258
				c0.206,0,0.36,0.154,0.36,0.36c0,0.257-0.309,0.36-0.824,0.36c-2.574,0-4.375-0.155-4.787-0.155
				c-0.412,0-2.315,0.155-4.375,0.155c-0.462,0-0.721-0.052-0.721-0.36c0-0.207,0.155-0.36,0.36-0.36
				c0.36,0,1.184-0.052,1.854-0.258c1.132-0.309,1.287-1.492,1.287-5.456V38.543c0-1.75,0.257-2.213,0.618-2.213
				c0.515,0,1.288,0.875,1.75,1.338c0.721,0.721,7.31,7.722,14.31,14.928c4.479,4.633,9.318,9.833,10.707,11.274l-0.463-21.929
				c-0.052-2.832-0.309-3.809-1.698-4.067c-0.824-0.154-1.853-0.206-2.213-0.206c-0.309,0-0.36-0.257-0.36-0.412
				c0-0.257,0.36-0.309,0.874-0.309c2.06,0,4.222,0.103,4.737,0.103c0.514,0,2.007-0.103,3.86-0.103
				c0.463,0,0.824,0.051,0.824,0.309c0,0.154-0.207,0.412-0.515,0.412c-0.205,0-0.565,0-1.081,0.104
				c-1.493,0.309-1.596,1.184-1.596,3.809l-0.102,25.635c0,2.883-0.051,3.14-0.36,3.14c-0.463,0-0.927-0.36-3.449-2.677
				c-0.463-0.412-7-6.846-11.788-11.839c-5.25-5.508-10.346-10.861-11.736-12.405L87.844,64.075z"/>
			<linearGradient id="SVGID_5_" gradientUnits="userSpaceOnUse" x1="0" y1="35.3838" x2="167.7611" y2="35.3838">
				<stop  offset="0" style="stop-color:#5B8E3F"/>
				<stop  offset="1" style="stop-color:#30ACC4"/>
			</linearGradient>
			<path fill="url(#SVGID_5_)" d="M129.68,57.333c0,4.22,0,7.669,0.206,9.471c0.155,1.286,0.31,2.11,1.648,2.315
				c0.669,0.103,1.646,0.207,2.059,0.207c0.258,0,0.36,0.206,0.36,0.36c0,0.206-0.206,0.36-0.721,0.36
				c-2.522,0-5.457-0.155-5.662-0.155c-0.258,0-3.089,0.155-4.479,0.155c-0.464,0-0.721-0.104-0.721-0.36
				c0-0.155,0.104-0.36,0.36-0.36c0.412,0,0.978-0.104,1.39-0.207c0.875-0.206,1.029-1.029,1.184-2.315
				c0.205-1.802,0.257-5.251,0.257-9.471v-7.722c0-6.794,0-8.03-0.103-9.42c-0.102-1.493-0.462-2.162-1.441-2.368
				c-0.514-0.103-1.081-0.154-1.39-0.154c-0.205,0-0.36-0.206-0.36-0.36c0-0.257,0.207-0.36,0.721-0.36
				c1.493,0,4.324,0.103,4.582,0.103c0.205,0,3.139-0.103,4.529-0.103c0.516,0,0.721,0.103,0.721,0.36c0,0.154-0.205,0.36-0.36,0.36
				c-0.309,0-0.617,0-1.133,0.104c-1.234,0.257-1.491,0.875-1.595,2.419c-0.052,1.39-0.052,2.625-0.052,9.42V57.333z"/>
			<linearGradient id="SVGID_6_" gradientUnits="userSpaceOnUse" x1="0" y1="35.3838" x2="167.7611" y2="35.3838">
				<stop  offset="0" style="stop-color:#5B8E3F"/>
				<stop  offset="1" style="stop-color:#30ACC4"/>
			</linearGradient>
			<path fill="url(#SVGID_6_)" d="M142.368,65.929c-4.427-3.81-5.508-8.802-5.508-12.972c0-2.934,1.081-8.031,5.096-11.942
				c2.729-2.625,6.847-4.685,13.796-4.685c1.801,0,4.375,0.155,6.589,0.515c1.698,0.309,3.139,0.617,4.632,0.669
				c0.464,0,0.566,0.206,0.566,0.463c0,0.36-0.102,0.876-0.206,2.471c-0.051,1.441-0.051,3.861-0.103,4.478
				c-0.052,0.67-0.257,0.927-0.514,0.927c-0.309,0-0.36-0.309-0.36-0.927c0-1.698-0.72-3.449-1.905-4.375
				c-1.596-1.338-4.891-2.419-8.905-2.419c-5.816,0-8.596,1.544-10.192,3.037c-3.346,3.088-4.066,7.001-4.066,11.427
				c0,8.392,6.64,15.854,16.318,15.854c3.396,0,5.662-0.257,7.463-2.059c0.979-0.979,1.596-2.831,1.75-3.655
				c0.104-0.463,0.155-0.619,0.464-0.619c0.207,0,0.412,0.31,0.412,0.619s-0.617,4.119-1.081,5.61
				c-0.257,0.824-0.36,0.979-1.133,1.288c-1.853,0.721-5.251,0.978-8.185,0.978C150.501,70.613,145.92,69.018,142.368,65.929z"/>
		</g>
		<g>
			<linearGradient id="SVGID_7_" gradientUnits="userSpaceOnUse" x1="0" y1="35.3838" x2="167.7611" y2="35.3838">
				<stop  offset="0" style="stop-color:#5B8E3F"/>
				<stop  offset="1" style="stop-color:#30ACC4"/>
			</linearGradient>
			<path fill="url(#SVGID_7_)" d="M70.501,12.324c0-4.519,0-5.341-0.068-6.265c-0.068-0.993-0.239-1.472-1.232-1.609
				c-0.239-0.034-0.753-0.068-1.026-0.068c-0.104,0-0.24-0.137-0.24-0.24c0-0.171,0.136-0.24,0.479-0.24
				c1.369,0,3.32,0.068,3.492,0.068c0.206,0,6.504,0.034,7.189,0c0.582-0.034,1.13-0.137,1.369-0.171
				c0.137-0.034,0.274-0.137,0.411-0.137c0.103,0,0.137,0.137,0.137,0.274c0,0.205-0.171,0.547-0.24,1.369
				c-0.034,0.274-0.103,1.575-0.171,1.917c-0.034,0.137-0.137,0.308-0.273,0.308c-0.171,0-0.24-0.137-0.24-0.377
				c0-0.205-0.034-0.684-0.171-1.026c-0.205-0.479-0.514-0.685-2.157-0.891c-0.513-0.068-4.005-0.103-4.348-0.103
				c-0.137,0-0.171,0.103-0.171,0.308v7.908c0,0.206,0,0.309,0.171,0.309c0.376,0,4.348,0,5.032-0.069
				c0.719-0.068,1.165-0.103,1.472-0.411c0.205-0.206,0.342-0.376,0.445-0.376c0.103,0,0.171,0.068,0.171,0.24
				s-0.171,0.65-0.24,1.609c-0.068,0.582-0.137,1.678-0.137,1.883c0,0.24-0.068,0.548-0.274,0.548c-0.137,0-0.206-0.102-0.206-0.274
				c0-0.274,0-0.582-0.137-0.958c-0.103-0.411-0.377-0.753-1.541-0.89c-0.821-0.103-4.04-0.137-4.553-0.137
				c-0.171,0-0.205,0.103-0.205,0.206v2.431c0,0.992-0.035,4.382,0,4.963c0.068,1.952,0.616,2.329,3.594,2.329
				c0.788,0,2.225,0,3.013-0.309c0.787-0.342,1.198-0.856,1.369-2.02c0.069-0.342,0.137-0.445,0.309-0.445
				c0.17,0,0.205,0.24,0.205,0.445c0,0.206-0.24,2.191-0.411,2.808c-0.206,0.753-0.514,0.753-1.678,0.753
				c-2.259,0-4.005-0.069-5.238-0.103c-1.267-0.069-2.054-0.069-2.499-0.069c-0.068,0-0.65,0-1.301,0.035
				c-0.582,0.034-1.267,0.068-1.746,0.068c-0.308,0-0.479-0.068-0.479-0.239c0-0.104,0.068-0.24,0.24-0.24
				c0.274,0,0.65-0.103,0.924-0.138c0.583-0.102,0.651-0.685,0.788-1.54c0.171-1.198,0.171-3.493,0.171-6.299V12.324z"/>
			<linearGradient id="SVGID_8_" gradientUnits="userSpaceOnUse" x1="0" y1="35.3838" x2="167.7611" y2="35.3838">
				<stop  offset="0" style="stop-color:#5B8E3F"/>
				<stop  offset="1" style="stop-color:#30ACC4"/>
			</linearGradient>
			<path fill="url(#SVGID_8_)" d="M113.47,17.527c0,4.28,0.068,6.026,0.616,6.539c0.479,0.479,1.643,0.686,4.005,0.686
				c1.575,0,2.91-0.034,3.628-0.891c0.377-0.445,0.616-1.061,0.719-1.643c0.035-0.206,0.137-0.376,0.309-0.376
				c0.137,0,0.205,0.137,0.205,0.445c0,0.307-0.205,2.053-0.445,2.91c-0.206,0.685-0.308,0.788-1.917,0.788
				c-2.156,0-3.834-0.034-5.238-0.103c-1.369-0.034-2.396-0.069-3.286-0.069c-0.137,0-0.65,0-1.232,0.035
				c-0.617,0.034-1.267,0.068-1.746,0.068c-0.309,0-0.479-0.068-0.479-0.239c0-0.104,0.068-0.24,0.24-0.24
				c0.274,0,0.65-0.069,0.924-0.138c0.583-0.136,0.651-0.685,0.788-1.54c0.171-1.198,0.171-3.493,0.171-6.299v-5.135
				c0-4.519,0-5.341-0.068-6.265c-0.068-0.993-0.24-1.472-1.233-1.609c-0.239-0.034-0.753-0.068-1.026-0.068
				c-0.103,0-0.24-0.137-0.24-0.24c0-0.171,0.137-0.24,0.479-0.24c1.369,0,3.252,0.068,3.423,0.068c0.137,0,2.396-0.068,3.321-0.068
				c0.308,0,0.479,0.068,0.479,0.24c0,0.103-0.137,0.205-0.24,0.205c-0.205,0-0.65,0.035-0.993,0.069
				c-0.89,0.171-1.061,0.616-1.129,1.643c-0.034,0.924-0.034,1.746-0.034,6.265V17.527z"/>
			<linearGradient id="SVGID_9_" gradientUnits="userSpaceOnUse" x1="0" y1="35.3838" x2="167.7611" y2="35.3838">
				<stop  offset="0" style="stop-color:#5B8E3F"/>
				<stop  offset="1" style="stop-color:#30ACC4"/>
			</linearGradient>
			<path fill="url(#SVGID_9_)" d="M133.739,17.459c0,2.807,0,5.101,0.137,6.299c0.103,0.855,0.24,1.403,1.164,1.54
				c0.411,0.069,1.096,0.138,1.369,0.138c0.206,0,0.24,0.136,0.24,0.24c0,0.136-0.137,0.239-0.479,0.239
				c-1.643,0-3.56-0.103-3.731-0.103c-0.137,0-2.226,0.103-3.115,0.103c-0.342,0-0.479-0.068-0.479-0.239
				c0-0.104,0.068-0.206,0.24-0.206c0.274,0,0.616-0.069,0.89-0.137c0.617-0.137,0.788-0.719,0.891-1.574
				C131,22.561,131,20.266,131,17.459V5.237l-4.347,0.068c-1.883,0.035-2.602,0.24-3.047,0.925
				c-0.343,0.514-0.377,0.719-0.479,0.924c-0.069,0.24-0.171,0.274-0.308,0.274c-0.068,0-0.206-0.068-0.206-0.24
				c0-0.308,0.582-2.91,0.65-3.149c0.034-0.171,0.206-0.548,0.308-0.548c0.206,0,0.514,0.24,1.335,0.343
				c0.855,0.103,2.02,0.137,2.362,0.137h11.365c0.993,0,1.677-0.068,2.156-0.137c0.446-0.068,0.72-0.137,0.856-0.137
				c0.137,0,0.137,0.171,0.137,0.342c0,0.89-0.103,2.978-0.103,3.321c0,0.239-0.137,0.376-0.274,0.376s-0.206-0.103-0.24-0.513
				l-0.034-0.308c-0.103-0.89-0.753-1.541-3.629-1.609l-3.766-0.068V17.459z"/>
			<g>
				<linearGradient id="SVGID_10_" gradientUnits="userSpaceOnUse" x1="0" y1="35.3838" x2="167.7611" y2="35.3838">
					<stop  offset="0" style="stop-color:#5B8E3F"/>
					<stop  offset="1" style="stop-color:#30ACC4"/>
				</linearGradient>
				<path fill="url(#SVGID_10_)" d="M151.842,25.436c-0.274,0-0.924-0.069-1.369-0.138c-0.89-0.136-0.993-0.685-1.096-1.54
					c-0.137-1.198-0.137-3.424-0.137-6.231v-2.526c-0.512-0.685-0.513-1.722,0-2.395v-0.214c0-4.519,0-5.409,0.034-6.333
					c0.069-1.027,0.24-1.438,1.061-1.609c0.343-0.068,0.548-0.068,0.753-0.068c0.103,0,0.24-0.137,0.24-0.24
					c0-0.171-0.137-0.24-0.479-0.24c-0.924,0-2.841,0.068-2.978,0.068c-0.172,0-2.089-0.068-3.458-0.068
					c-0.343,0-0.479,0.068-0.479,0.24c0,0.103,0.137,0.24,0.24,0.24c0.274,0,0.788,0.034,1.027,0.068
					c0.992,0.137,1.164,0.616,1.231,1.609c0.068,0.924,0.068,1.746,0.068,6.265v5.135c0,2.807,0,5.101-0.171,6.299
					c-0.137,0.855-0.205,1.403-0.787,1.54c-0.274,0.069-0.65,0.138-0.924,0.138c-0.171,0-0.24,0.136-0.24,0.24
					c0,0.171,0.171,0.239,0.479,0.239c0.924,0,2.841-0.103,3.013-0.103c0.137,0,2.054,0.103,3.731,0.103
					c0.343,0,0.479-0.103,0.479-0.239C152.082,25.572,152.014,25.436,151.842,25.436z"/>
				<linearGradient id="SVGID_11_" gradientUnits="userSpaceOnUse" x1="0" y1="35.3838" x2="167.7611" y2="35.3838">
					<stop  offset="0" style="stop-color:#5B8E3F"/>
					<stop  offset="1" style="stop-color:#30ACC4"/>
				</linearGradient>
				<path fill="url(#SVGID_11_)" d="M167.487,25.436c-0.24,0-0.924-0.069-1.335-0.138c-0.924-0.136-0.992-0.685-1.095-1.54
					c-0.137-1.198-0.171-3.493-0.171-6.299v-5.135c0-4.519,0-5.341,0.068-6.265c0.069-1.027,0.24-1.438,1.027-1.609
					c0.377-0.068,0.548-0.068,0.753-0.068c0.138,0,0.274-0.137,0.274-0.24c0-0.171-0.171-0.24-0.513-0.24
					c-0.89,0-2.807,0.068-2.979,0.068c-0.136,0-2.087-0.068-3.423-0.068c-0.342,0-0.479,0.068-0.479,0.24
					c0,0.103,0.103,0.24,0.24,0.24c0.274,0,0.788,0.034,1.027,0.068c0.993,0.137,1.129,0.616,1.198,1.609
					c0.034,0.924,0.069,1.814,0.069,6.333v0.012c0.761,0.655,0.664,1.884,0,2.635v2.489c0,2.808,0,4.999-0.138,6.197
					c-0.102,0.855-0.205,1.438-0.821,1.574c-0.274,0.069-0.617,0.138-0.89,0.138c-0.172,0-0.24,0.136-0.24,0.24
					c0,0.171,0.136,0.239,0.479,0.239c0.89,0,2.841-0.103,2.978-0.103c0.172,0,2.089,0.103,3.732,0.103
					c0.343,0,0.514-0.103,0.514-0.239C167.761,25.572,167.692,25.436,167.487,25.436z"/>
				<linearGradient id="SVGID_12_" gradientUnits="userSpaceOnUse" x1="0" y1="35.3838" x2="167.7611" y2="35.3838">
					<stop  offset="0" style="stop-color:#5B8E3F"/>
					<stop  offset="1" style="stop-color:#30ACC4"/>
				</linearGradient>
				<polygon fill="url(#SVGID_12_)" points="149.241,12.606 148.667,12.606 148.667,15.019 149.241,15.001 				"/>
				<linearGradient id="SVGID_13_" gradientUnits="userSpaceOnUse" x1="0" y1="35.3838" x2="167.7611" y2="35.3838">
					<stop  offset="0" style="stop-color:#5B8E3F"/>
					<stop  offset="1" style="stop-color:#30ACC4"/>
				</linearGradient>
				<rect x="162.147" y="12.404" fill="url(#SVGID_13_)" width="0.712" height="2.635"/>
				<linearGradient id="SVGID_14_" gradientUnits="userSpaceOnUse" x1="0" y1="35.3838" x2="167.7611" y2="35.3838">
					<stop  offset="0" style="stop-color:#5B8E3F"/>
					<stop  offset="1" style="stop-color:#30ACC4"/>
				</linearGradient>
				<path fill="url(#SVGID_14_)" d="M162.147,15.067v0.571c0.003,0.001,0.007,0.002,0.011,0.004
					c0.351-0.093,0.759-0.213,0.848-0.416c0.383-1.048,0.173-1.735-0.628-2.06c-0.079-0.015-0.155-0.042-0.23-0.071v0.362
					c0,0.171-0.069,0.171-0.171,0.171h-12.564c-0.102,0-0.171,0-0.171-0.171v-0.351c-0.081,0.046-0.154,0.104-0.242,0.136
					c0.049,0.614-0.151,1.798-0.027,1.955c0.102,0.13,0.186,0.257,0.269,0.385v-0.516c0-0.137,0.069-0.171,0.171-0.171h12.564
					C162.078,14.896,162.147,14.93,162.147,15.067z"/>
			</g>
			<g>
				<linearGradient id="SVGID_15_" gradientUnits="userSpaceOnUse" x1="0" y1="35.3838" x2="167.7611" y2="35.3838">
					<stop  offset="0" style="stop-color:#5B8E3F"/>
					<stop  offset="1" style="stop-color:#30ACC4"/>
				</linearGradient>
				<path fill="url(#SVGID_15_)" d="M48.338,25.402c-0.308,0-1.061-0.069-1.541-0.138c-1.027-0.136-1.232-0.89-1.335-1.882
					c-0.171-1.438-0.171-4.143-0.171-7.429v-2.995c-0.618-0.667-0.617-1.856,0-2.597V9.928c0-5.34,0-6.299,0.069-7.395
					c0.068-1.198,0.342-1.78,1.266-1.951c0.411-0.068,0.617-0.103,0.856-0.103c0.137,0,0.274-0.068,0.274-0.205
					C47.756,0.068,47.584,0,47.208,0c-1.027,0-3.184,0.103-3.355,0.103C43.683,0.103,41.525,0,39.985,0
					c-0.376,0-0.548,0.068-0.548,0.274c0,0.137,0.137,0.205,0.274,0.205c0.309,0,0.89,0.035,1.165,0.103
					c1.129,0.239,1.403,0.788,1.471,1.951c0.069,1.096,0.069,2.054,0.069,7.395v6.025c0,3.286,0,5.991-0.171,7.429
					c-0.137,0.993-0.308,1.746-0.992,1.882c-0.309,0.069-0.719,0.138-1.027,0.138c-0.205,0-0.274,0.102-0.274,0.205
					c0,0.205,0.171,0.274,0.548,0.274c1.027,0,3.184-0.103,3.355-0.103c0.171,0,2.328,0.103,4.211,0.103
					c0.376,0,0.547-0.103,0.547-0.274C48.612,25.504,48.543,25.402,48.338,25.402z"/>
				<linearGradient id="SVGID_16_" gradientUnits="userSpaceOnUse" x1="0" y1="35.3838" x2="167.7611" y2="35.3838">
					<stop  offset="0" style="stop-color:#5B8E3F"/>
					<stop  offset="1" style="stop-color:#30ACC4"/>
				</linearGradient>
				<path fill="url(#SVGID_16_)" d="M66.14,25.402c-0.308,0-1.061-0.069-1.541-0.138c-1.027-0.136-1.232-0.89-1.335-1.882
					c-0.171-1.438-0.171-4.143-0.171-7.429V9.928c0-5.34,0-6.299,0.069-7.395c0.068-1.198,0.342-1.78,1.266-1.951
					c0.411-0.068,0.617-0.103,0.856-0.103c0.137,0,0.274-0.068,0.274-0.205C65.558,0.068,65.386,0,65.01,0
					c-1.027,0-3.184,0.103-3.354,0.103C61.484,0.103,59.327,0,57.787,0c-0.376,0-0.548,0.068-0.548,0.274
					c0,0.137,0.137,0.205,0.274,0.205c0.308,0,0.89,0.035,1.164,0.103c1.13,0.239,1.404,0.788,1.472,1.951
					c0.069,1.096,0.069,2.054,0.069,7.395v0.43c0.796,0.698,0.795,2.115,0,2.856v2.739c0,3.286,0,5.991-0.171,7.429
					c-0.137,0.993-0.308,1.746-0.993,1.882c-0.308,0.069-0.719,0.138-1.027,0.138c-0.206,0-0.274,0.102-0.274,0.205
					c0,0.205,0.171,0.274,0.547,0.274c1.027,0,3.184-0.103,3.355-0.103c0.171,0,2.328,0.103,4.21,0.103
					c0.376,0,0.548-0.103,0.548-0.274C66.414,25.504,66.345,25.402,66.14,25.402z"/>
				<linearGradient id="SVGID_17_" gradientUnits="userSpaceOnUse" x1="0" y1="35.3838" x2="167.7611" y2="35.3838">
					<stop  offset="0" style="stop-color:#5B8E3F"/>
					<stop  offset="1" style="stop-color:#30ACC4"/>
				</linearGradient>
				<polygon fill="url(#SVGID_17_)" points="45.291,10.361 44.569,10.361 44.569,12.94 45.291,12.958 				"/>
				<linearGradient id="SVGID_18_" gradientUnits="userSpaceOnUse" x1="0" y1="35.3838" x2="167.7611" y2="35.3838">
					<stop  offset="0" style="stop-color:#5B8E3F"/>
					<stop  offset="1" style="stop-color:#30ACC4"/>
				</linearGradient>
				<rect x="60.217" y="10.358" fill="url(#SVGID_18_)" width="0.737" height="2.856"/>
			</g>
			<g>
				<g>
					<linearGradient id="SVGID_19_" gradientUnits="userSpaceOnUse" x1="0" y1="35.3838" x2="167.7611" y2="35.3838">
						<stop  offset="0" style="stop-color:#5B8E3F"/>
						<stop  offset="1" style="stop-color:#30ACC4"/>
					</linearGradient>
					<path fill="url(#SVGID_19_)" d="M106.381,25.436c-0.309,0-0.753-0.035-1.199-0.172c-0.65-0.205-1.472-0.582-2.567-3.183
						c-1.849-4.416-6.676-16.433-7.224-17.665c-0.308-0.65-0.411-1.062-0.719-1.062c-0.206,0-0.342,0.171-0.719,1.13l-7.087,18.212
						c-0.582,1.472-1.164,2.5-2.533,2.67c-0.239,0.034-0.685,0.069-0.89,0.069c-0.137,0-0.274,0.102-0.274,0.24
						c0,0.171,0.206,0.239,0.583,0.239c1.232,0,2.738-0.103,3.047-0.103c0.342,0,1.985,0.103,2.704,0.103
						c0.274,0,0.445-0.068,0.445-0.239c0-0.138-0.069-0.24-0.309-0.24h-0.274c-0.513,0-1.027-0.206-1.027-0.788
						c0-0.514,0.171-1.232,0.445-1.952l1.712-4.656c0-0.001,0.001-0.001,0.002-0.002c-0.429-0.57-0.213-1.568,0.633-1.694
						l2.789-7.923c0.171-0.445,0.342-0.445,0.514,0l2.947,7.892c0.842,0.12,1.062,1.098,0.653,1.673l2.699,6.663
						c0.206,0.479-0.103,0.719-0.274,0.788c-0.137,0.069-0.205,0.069-0.205,0.205c0,0.171,0.479,0.171,1.061,0.206
						c2.088,0.068,4.313,0.068,4.758,0.068c0.342,0,0.685-0.068,0.685-0.239S106.552,25.436,106.381,25.436z"/>
					<linearGradient id="SVGID_20_" gradientUnits="userSpaceOnUse" x1="0" y1="35.3838" x2="167.7611" y2="35.3838">
						<stop  offset="0" style="stop-color:#5B8E3F"/>
						<stop  offset="1" style="stop-color:#30ACC4"/>
					</linearGradient>
					<polygon fill="url(#SVGID_20_)" points="91.131,16.344 90.329,16.163 89.868,17.753 90.497,18.041 					"/>
					<linearGradient id="SVGID_21_" gradientUnits="userSpaceOnUse" x1="0" y1="35.3838" x2="167.7611" y2="35.3838">
						<stop  offset="0" style="stop-color:#5B8E3F"/>
						<stop  offset="1" style="stop-color:#30ACC4"/>
					</linearGradient>
					<polygon fill="url(#SVGID_21_)" points="97.38,16.313 98.033,17.986 98.651,17.738 98.016,16.059 					"/>
				</g>
				<linearGradient id="SVGID_22_" gradientUnits="userSpaceOnUse" x1="0" y1="35.3838" x2="167.7611" y2="35.3838">
					<stop  offset="0" style="stop-color:#5B8E3F"/>
					<stop  offset="1" style="stop-color:#30ACC4"/>
				</linearGradient>
				<polygon fill="url(#SVGID_22_)" points="91.103,13.684 90.782,14.856 97.38,14.856 96.888,13.684 				"/>
			</g>
		</g>
	</g>
</g>
<g>
	<g>
		<linearGradient id="SVGID_23_" gradientUnits="userSpaceOnUse" x1="36.8779" y1="11.6357" x2="60.4395" y2="11.6357">
			<stop  offset="0" style="stop-color:#522E91"/>
			<stop  offset="0.1624" style="stop-color:#523090"/>
			<stop  offset="0.2928" style="stop-color:#53358D"/>
			<stop  offset="0.4122" style="stop-color:#533D8A"/>
			<stop  offset="0.525" style="stop-color:#534885"/>
			<stop  offset="0.6332" style="stop-color:#53557E"/>
			<stop  offset="0.7379" style="stop-color:#536273"/>
			<stop  offset="0.8399" style="stop-color:#567165"/>
			<stop  offset="0.9371" style="stop-color:#59824F"/>
			<stop  offset="1" style="stop-color:#5B8E3F"/>
		</linearGradient>
		<rect x="36.878" y="10.827" fill="url(#SVGID_23_)" width="23.562" height="1.617"/>
	</g>
	<g>
		<polygon fill="#522E91" points="22.216,12.444 8.211,11.636 22.216,10.828 		"/>
	</g>
	<polygon fill="#522E91" points="22.224,10.818 27.727,25.909 25.966,25.909 20.93,12.304 	"/>
	<polygon fill="#522E91" points="27.926,25.909 35.663,4.904 33.844,4.904 26.141,25.909 	"/>
	<polygon fill="#522E91" points="35.864,4.904 34.103,4.904 36.855,12.45 38.055,10.822 	"/>
</g>
</svg>
