<?xml version="1.0" encoding="utf-8"?>
<!-- Generator: Adobe Illustrator 15.0.2, SVG Export Plug-In . SVG Version: 6.00 Build 0)  -->
<!DOCTYPE svg PUBLIC "-//W3C//DTD SVG 1.1//EN" "http://www.w3.org/Graphics/SVG/1.1/DTD/svg11.dtd">
<svg version="1.1" id="Layer_1" xmlns="http://www.w3.org/2000/svg" xmlns:xlink="http://www.w3.org/1999/xlink" x="0px" y="0px"
	 width="167.761px" height="27.321px" viewBox="0 0 167.761 27.321" enable-background="new 0 0 167.761 27.321"
	 xml:space="preserve">
<g>
	<g>
		<path d="M65.497,12.958c0-4.751,0-5.615-0.072-6.587c-0.072-1.044-0.252-1.548-1.296-1.691c-0.252-0.036-0.792-0.072-1.08-0.072
			c-0.108,0-0.252-0.144-0.252-0.252c0-0.18,0.144-0.252,0.504-0.252c1.44,0,3.492,0.072,3.671,0.072c0.216,0,6.839,0.036,7.559,0
			c0.612-0.036,1.188-0.144,1.44-0.18c0.144-0.036,0.288-0.144,0.432-0.144c0.108,0,0.144,0.144,0.144,0.288
			c0,0.216-0.18,0.576-0.251,1.439c-0.036,0.288-0.108,1.656-0.18,2.016c-0.036,0.144-0.144,0.324-0.288,0.324
			c-0.18,0-0.251-0.144-0.251-0.396c0-0.216-0.037-0.72-0.18-1.08c-0.216-0.504-0.541-0.72-2.268-0.936
			c-0.54-0.072-4.211-0.108-4.572-0.108c-0.143,0-0.18,0.108-0.18,0.324v8.315c0,0.216,0,0.324,0.18,0.324
			c0.396,0,4.572,0,5.292-0.072c0.756-0.072,1.225-0.108,1.548-0.432c0.216-0.216,0.359-0.396,0.468-0.396s0.18,0.072,0.18,0.252
			s-0.18,0.684-0.251,1.692c-0.072,0.612-0.145,1.764-0.145,1.979c0,0.252-0.071,0.576-0.288,0.576
			c-0.144,0-0.216-0.107-0.216-0.288c0-0.288,0-0.612-0.144-1.008c-0.108-0.433-0.396-0.792-1.62-0.937
			c-0.864-0.107-4.248-0.144-4.788-0.144c-0.18,0-0.216,0.108-0.216,0.216v2.557c0,1.043-0.036,4.607,0,5.219
			c0.072,2.052,0.648,2.448,3.779,2.448c0.829,0,2.34,0,3.168-0.324c0.827-0.36,1.26-0.9,1.439-2.124
			c0.072-0.359,0.144-0.468,0.324-0.468c0.18,0,0.216,0.252,0.216,0.468s-0.252,2.304-0.432,2.952
			c-0.217,0.792-0.541,0.792-1.764,0.792c-2.375,0-4.211-0.072-5.507-0.108c-1.332-0.072-2.16-0.072-2.628-0.072
			c-0.072,0-0.684,0-1.367,0.036c-0.612,0.036-1.333,0.072-1.836,0.072c-0.324,0-0.504-0.072-0.504-0.252
			c0-0.108,0.072-0.252,0.252-0.252c0.288,0,0.684-0.108,0.971-0.145c0.613-0.107,0.684-0.72,0.829-1.619
			c0.18-1.26,0.18-3.672,0.18-6.623V12.958z"/>
		<path d="M110.676,18.429c0,4.5,0.071,6.336,0.648,6.875c0.504,0.504,1.728,0.721,4.211,0.721c1.656,0,3.06-0.036,3.815-0.937
			c0.396-0.468,0.648-1.115,0.756-1.728c0.036-0.216,0.145-0.396,0.324-0.396c0.145,0,0.216,0.144,0.216,0.468
			c0,0.323-0.216,2.159-0.468,3.06c-0.216,0.72-0.324,0.828-2.016,0.828c-2.268,0-4.031-0.036-5.508-0.108
			c-1.439-0.036-2.52-0.072-3.455-0.072c-0.145,0-0.684,0-1.295,0.036c-0.648,0.036-1.333,0.072-1.837,0.072
			c-0.323,0-0.503-0.072-0.503-0.252c0-0.108,0.071-0.252,0.252-0.252c0.287,0,0.684-0.072,0.971-0.145
			c0.613-0.144,0.684-0.72,0.828-1.619c0.18-1.26,0.18-3.672,0.18-6.623v-5.4c0-4.751,0-5.615-0.071-6.587
			c-0.071-1.044-0.253-1.548-1.296-1.691c-0.252-0.036-0.792-0.072-1.08-0.072c-0.107,0-0.252-0.144-0.252-0.252
			c0-0.18,0.145-0.252,0.504-0.252c1.439,0,3.42,0.072,3.6,0.072c0.144,0,2.52-0.072,3.492-0.072c0.324,0,0.504,0.072,0.504,0.252
			c0,0.108-0.145,0.216-0.253,0.216c-0.216,0-0.684,0.036-1.044,0.072c-0.936,0.18-1.115,0.648-1.188,1.728
			c-0.036,0.972-0.036,1.836-0.036,6.587V18.429z"/>
		<path d="M131.987,18.358c0,2.951,0,5.363,0.145,6.623c0.107,0.899,0.252,1.476,1.224,1.619c0.432,0.072,1.152,0.145,1.439,0.145
			c0.217,0,0.252,0.144,0.252,0.252c0,0.144-0.144,0.252-0.504,0.252c-1.728,0-3.743-0.108-3.923-0.108
			c-0.145,0-2.34,0.108-3.275,0.108c-0.36,0-0.504-0.072-0.504-0.252c0-0.108,0.072-0.216,0.252-0.216
			c0.287,0,0.648-0.072,0.936-0.145c0.647-0.144,0.828-0.756,0.936-1.655c0.145-1.26,0.145-3.672,0.145-6.623V5.507l-4.571,0.072
			c-1.98,0.036-2.736,0.252-3.204,0.972c-0.36,0.54-0.396,0.756-0.504,0.972c-0.072,0.252-0.18,0.288-0.324,0.288
			c-0.071,0-0.216-0.072-0.216-0.252c0-0.324,0.612-3.06,0.684-3.312c0.036-0.18,0.216-0.576,0.324-0.576
			c0.216,0,0.54,0.252,1.403,0.36c0.9,0.108,2.125,0.144,2.484,0.144h11.95c1.044,0,1.764-0.072,2.268-0.144
			c0.469-0.072,0.757-0.144,0.9-0.144s0.144,0.18,0.144,0.36c0,0.936-0.107,3.131-0.107,3.492c0,0.252-0.145,0.396-0.288,0.396
			s-0.216-0.108-0.252-0.54l-0.036-0.324c-0.108-0.936-0.792-1.62-3.815-1.692l-3.96-0.072V18.358z"/>
		<g>
			<path d="M151.022,26.745c-0.288,0-0.972-0.072-1.439-0.145c-0.936-0.144-1.044-0.72-1.152-1.619
				c-0.144-1.26-0.144-3.6-0.144-6.552v-2.657c-0.538-0.719-0.539-1.81,0-2.517V13.03c0-4.751,0-5.687,0.036-6.659
				c0.072-1.08,0.252-1.512,1.115-1.691c0.36-0.072,0.576-0.072,0.792-0.072c0.108,0,0.252-0.144,0.252-0.252
				c0-0.18-0.144-0.252-0.504-0.252c-0.972,0-2.987,0.072-3.131,0.072c-0.181,0-2.196-0.072-3.636-0.072
				c-0.36,0-0.504,0.072-0.504,0.252c0,0.108,0.144,0.252,0.252,0.252c0.288,0,0.828,0.036,1.08,0.072
				c1.043,0.144,1.224,0.647,1.295,1.691c0.072,0.972,0.072,1.836,0.072,6.587v5.4c0,2.951,0,5.363-0.18,6.623
				c-0.145,0.899-0.216,1.476-0.828,1.619c-0.288,0.072-0.684,0.145-0.972,0.145c-0.18,0-0.252,0.144-0.252,0.252
				c0,0.18,0.18,0.252,0.504,0.252c0.972,0,2.987-0.108,3.168-0.108c0.144,0,2.159,0.108,3.923,0.108
				c0.36,0,0.504-0.108,0.504-0.252C151.274,26.888,151.203,26.745,151.022,26.745z"/>
			<path d="M167.473,26.745c-0.252,0-0.972-0.072-1.404-0.145c-0.972-0.144-1.043-0.72-1.151-1.619
				c-0.144-1.26-0.18-3.672-0.18-6.623v-5.4c0-4.751,0-5.615,0.071-6.587c0.072-1.08,0.252-1.512,1.08-1.691
				c0.396-0.072,0.576-0.072,0.792-0.072c0.145,0,0.288-0.144,0.288-0.252c0-0.18-0.18-0.252-0.54-0.252
				c-0.936,0-2.951,0.072-3.132,0.072c-0.144,0-2.195-0.072-3.6-0.072c-0.359,0-0.504,0.072-0.504,0.252
				c0,0.108,0.108,0.252,0.252,0.252c0.288,0,0.828,0.036,1.08,0.072c1.044,0.144,1.188,0.647,1.26,1.691
				c0.036,0.972,0.072,1.908,0.072,6.659v0.013c0.801,0.688,0.698,1.98,0,2.77v2.617c0,2.952,0,5.256-0.145,6.516
				c-0.107,0.899-0.216,1.512-0.863,1.655c-0.288,0.072-0.648,0.145-0.936,0.145c-0.181,0-0.252,0.144-0.252,0.252
				c0,0.18,0.144,0.252,0.504,0.252c0.936,0,2.987-0.108,3.131-0.108c0.181,0,2.196,0.108,3.924,0.108c0.36,0,0.54-0.108,0.54-0.252
				C167.761,26.888,167.688,26.745,167.473,26.745z"/>
			<polygon points="148.287,13.255 147.685,13.255 147.685,15.792 148.287,15.772 			"/>
			<rect x="161.857" y="13.042" width="0.749" height="2.77"/>
			<path d="M161.857,15.842v0.601c0.004,0.001,0.008,0.003,0.012,0.004c0.368-0.099,0.798-0.224,0.892-0.437
				c0.402-1.103,0.182-1.825-0.661-2.167c-0.083-0.015-0.163-0.043-0.242-0.074v0.381c0,0.18-0.072,0.18-0.18,0.18h-13.211
				c-0.107,0-0.18,0-0.18-0.18v-0.37c-0.084,0.048-0.161,0.109-0.254,0.143c0.052,0.646-0.158,1.891-0.028,2.056
				c0.107,0.138,0.195,0.271,0.282,0.404v-0.542c0-0.145,0.072-0.181,0.18-0.181h13.211
				C161.785,15.662,161.857,15.698,161.857,15.842z"/>
		</g>
		<g>
			<path d="M42.192,26.708c-0.324,0-1.116-0.072-1.62-0.145c-1.08-0.144-1.296-0.936-1.404-1.979c-0.18-1.512-0.18-4.355-0.18-7.811
				v-3.149c-0.65-0.702-0.648-1.952,0-2.731v-0.456c0-5.615,0-6.623,0.073-7.775c0.072-1.26,0.36-1.872,1.332-2.052
				c0.432-0.072,0.648-0.108,0.9-0.108c0.144,0,0.288-0.072,0.288-0.216C41.58,0.072,41.4,0,41.005,0
				c-1.08,0-3.348,0.108-3.528,0.108C37.297,0.108,35.029,0,33.409,0c-0.396,0-0.576,0.072-0.576,0.288
				c0,0.144,0.144,0.216,0.288,0.216c0.324,0,0.936,0.036,1.224,0.108c1.188,0.252,1.476,0.828,1.547,2.052
				c0.073,1.152,0.073,2.16,0.073,7.775v6.335c0,3.455,0,6.299-0.181,7.811c-0.144,1.044-0.323,1.836-1.043,1.979
				c-0.324,0.072-0.757,0.145-1.08,0.145c-0.216,0-0.288,0.107-0.288,0.216c0,0.216,0.18,0.288,0.576,0.288
				c1.08,0,3.347-0.108,3.527-0.108c0.181,0,2.448,0.108,4.428,0.108c0.396,0,0.575-0.108,0.575-0.288
				C42.48,26.816,42.409,26.708,42.192,26.708z"/>
			<path d="M60.91,26.708c-0.323,0-1.115-0.072-1.619-0.145c-1.081-0.144-1.296-0.936-1.404-1.979
				c-0.181-1.512-0.181-4.355-0.181-7.811v-6.335c0-5.615,0-6.623,0.073-7.775c0.072-1.26,0.359-1.872,1.331-2.052
				c0.433-0.072,0.648-0.108,0.9-0.108c0.145,0,0.288-0.072,0.288-0.216c0-0.216-0.18-0.288-0.576-0.288
				c-1.079,0-3.347,0.108-3.527,0.108C56.014,0.108,53.747,0,52.127,0c-0.396,0-0.576,0.072-0.576,0.288
				c0,0.144,0.145,0.216,0.288,0.216c0.324,0,0.937,0.036,1.224,0.108c1.188,0.252,1.476,0.828,1.547,2.052
				c0.073,1.152,0.073,2.16,0.073,7.775v0.453c0.836,0.734,0.835,2.224,0,3.003v2.88c0,3.455,0,6.299-0.18,7.811
				c-0.144,1.044-0.324,1.836-1.044,1.979c-0.324,0.072-0.756,0.145-1.08,0.145c-0.216,0-0.288,0.107-0.288,0.216
				c0,0.216,0.18,0.288,0.576,0.288c1.08,0,3.347-0.108,3.528-0.108c0.18,0,2.448,0.108,4.427,0.108
				c0.396,0,0.576-0.108,0.576-0.288C61.198,26.816,61.126,26.708,60.91,26.708z"/>
			<polygon points="38.988,10.894 38.229,10.894 38.229,13.606 38.988,13.625 			"/>
			<rect x="54.683" y="10.891" width="0.775" height="3.003"/>
		</g>
		<g>
			<g>
				<path d="M103.222,26.745c-0.323,0-0.791-0.036-1.26-0.181c-0.684-0.216-1.547-0.611-2.699-3.347
					c-1.943-4.644-7.02-17.278-7.596-18.574c-0.324-0.684-0.432-1.116-0.755-1.116c-0.216,0-0.36,0.18-0.757,1.188l-7.45,19.15
					c-0.612,1.548-1.225,2.628-2.664,2.808c-0.252,0.036-0.72,0.072-0.937,0.072c-0.144,0-0.288,0.107-0.288,0.252
					c0,0.18,0.216,0.252,0.612,0.252c1.295,0,2.879-0.108,3.204-0.108c0.359,0,2.087,0.108,2.842,0.108
					c0.289,0,0.469-0.072,0.469-0.252c0-0.145-0.072-0.252-0.324-0.252h-0.287c-0.541,0-1.08-0.216-1.08-0.828
					c0-0.54,0.18-1.296,0.468-2.052l1.8-4.896c0-0.002,0.001-0.002,0.002-0.002c-0.451-0.6-0.225-1.649,0.666-1.781l2.932-8.332
					c0.18-0.468,0.359-0.468,0.539,0l3.1,8.298c0.885,0.125,1.116,1.154,0.686,1.758l2.839,7.006
					c0.216,0.504-0.108,0.756-0.288,0.828c-0.145,0.072-0.216,0.072-0.216,0.216c0,0.18,0.504,0.18,1.116,0.216
					c2.195,0.072,4.535,0.072,5.003,0.072c0.36,0,0.72-0.072,0.72-0.252S103.401,26.745,103.222,26.745z"/>
				<polygon points="87.188,17.186 86.344,16.995 85.859,18.667 86.521,18.969 				"/>
				<polygon points="93.759,17.153 94.444,18.911 95.094,18.651 94.427,16.885 				"/>
			</g>
			<polygon points="87.158,14.388 86.82,15.62 93.759,15.62 93.241,14.388 			"/>
		</g>
	</g>
	<g>
		<linearGradient id="SVGID_1_" gradientUnits="userSpaceOnUse" x1="32.8335" y1="13.6606" x2="167.7607" y2="13.6606">
			<stop  offset="0" style="stop-color:#5B8E3F"/>
			<stop  offset="1" style="stop-color:#30ACC4"/>
		</linearGradient>
		<path fill="url(#SVGID_1_)" d="M65.497,12.958c0-4.751,0-5.615-0.072-6.587c-0.072-1.044-0.252-1.548-1.296-1.691
			c-0.252-0.036-0.792-0.072-1.08-0.072c-0.108,0-0.252-0.144-0.252-0.252c0-0.18,0.144-0.252,0.504-0.252
			c1.44,0,3.492,0.072,3.671,0.072c0.216,0,6.839,0.036,7.559,0c0.612-0.036,1.188-0.144,1.44-0.18
			c0.144-0.036,0.288-0.144,0.432-0.144c0.108,0,0.144,0.144,0.144,0.288c0,0.216-0.18,0.576-0.251,1.439
			c-0.036,0.288-0.108,1.656-0.18,2.016c-0.036,0.144-0.144,0.324-0.288,0.324c-0.18,0-0.251-0.144-0.251-0.396
			c0-0.216-0.037-0.72-0.18-1.08c-0.216-0.504-0.541-0.72-2.268-0.936c-0.54-0.072-4.211-0.108-4.572-0.108
			c-0.143,0-0.18,0.108-0.18,0.324v8.315c0,0.216,0,0.324,0.18,0.324c0.396,0,4.572,0,5.292-0.072
			c0.756-0.072,1.225-0.108,1.548-0.432c0.216-0.216,0.359-0.396,0.468-0.396s0.18,0.072,0.18,0.252s-0.18,0.684-0.251,1.692
			c-0.072,0.612-0.145,1.764-0.145,1.979c0,0.252-0.071,0.576-0.288,0.576c-0.144,0-0.216-0.107-0.216-0.288
			c0-0.288,0-0.612-0.144-1.008c-0.108-0.433-0.396-0.792-1.62-0.937c-0.864-0.107-4.248-0.144-4.788-0.144
			c-0.18,0-0.216,0.108-0.216,0.216v2.557c0,1.043-0.036,4.607,0,5.219c0.072,2.052,0.648,2.448,3.779,2.448
			c0.829,0,2.34,0,3.168-0.324c0.827-0.36,1.26-0.9,1.439-2.124c0.072-0.359,0.144-0.468,0.324-0.468
			c0.18,0,0.216,0.252,0.216,0.468s-0.252,2.304-0.432,2.952c-0.217,0.792-0.541,0.792-1.764,0.792
			c-2.375,0-4.211-0.072-5.507-0.108c-1.332-0.072-2.16-0.072-2.628-0.072c-0.072,0-0.684,0-1.367,0.036
			c-0.612,0.036-1.333,0.072-1.836,0.072c-0.324,0-0.504-0.072-0.504-0.252c0-0.108,0.072-0.252,0.252-0.252
			c0.288,0,0.684-0.108,0.971-0.145c0.613-0.107,0.684-0.72,0.829-1.619c0.18-1.26,0.18-3.672,0.18-6.623V12.958z"/>
		<linearGradient id="SVGID_2_" gradientUnits="userSpaceOnUse" x1="32.8335" y1="13.6606" x2="167.7607" y2="13.6606">
			<stop  offset="0" style="stop-color:#5B8E3F"/>
			<stop  offset="1" style="stop-color:#30ACC4"/>
		</linearGradient>
		<path fill="url(#SVGID_2_)" d="M110.676,18.429c0,4.5,0.071,6.336,0.648,6.875c0.504,0.504,1.728,0.721,4.211,0.721
			c1.656,0,3.06-0.036,3.815-0.937c0.396-0.468,0.648-1.115,0.756-1.728c0.036-0.216,0.145-0.396,0.324-0.396
			c0.145,0,0.216,0.144,0.216,0.468c0,0.323-0.216,2.159-0.468,3.06c-0.216,0.72-0.324,0.828-2.016,0.828
			c-2.268,0-4.031-0.036-5.508-0.108c-1.439-0.036-2.52-0.072-3.455-0.072c-0.145,0-0.684,0-1.295,0.036
			c-0.648,0.036-1.333,0.072-1.837,0.072c-0.323,0-0.503-0.072-0.503-0.252c0-0.108,0.071-0.252,0.252-0.252
			c0.287,0,0.684-0.072,0.971-0.145c0.613-0.144,0.684-0.72,0.828-1.619c0.18-1.26,0.18-3.672,0.18-6.623v-5.4
			c0-4.751,0-5.615-0.071-6.587c-0.071-1.044-0.253-1.548-1.296-1.691c-0.252-0.036-0.792-0.072-1.08-0.072
			c-0.107,0-0.252-0.144-0.252-0.252c0-0.18,0.145-0.252,0.504-0.252c1.439,0,3.42,0.072,3.6,0.072c0.144,0,2.52-0.072,3.492-0.072
			c0.324,0,0.504,0.072,0.504,0.252c0,0.108-0.145,0.216-0.253,0.216c-0.216,0-0.684,0.036-1.044,0.072
			c-0.936,0.18-1.115,0.648-1.188,1.728c-0.036,0.972-0.036,1.836-0.036,6.587V18.429z"/>
		<linearGradient id="SVGID_3_" gradientUnits="userSpaceOnUse" x1="32.8335" y1="13.6606" x2="167.7607" y2="13.6606">
			<stop  offset="0" style="stop-color:#5B8E3F"/>
			<stop  offset="1" style="stop-color:#30ACC4"/>
		</linearGradient>
		<path fill="url(#SVGID_3_)" d="M131.987,18.358c0,2.951,0,5.363,0.145,6.623c0.107,0.899,0.252,1.476,1.224,1.619
			c0.432,0.072,1.152,0.145,1.439,0.145c0.217,0,0.252,0.144,0.252,0.252c0,0.144-0.144,0.252-0.504,0.252
			c-1.728,0-3.743-0.108-3.923-0.108c-0.145,0-2.34,0.108-3.275,0.108c-0.36,0-0.504-0.072-0.504-0.252
			c0-0.108,0.072-0.216,0.252-0.216c0.287,0,0.648-0.072,0.936-0.145c0.647-0.144,0.828-0.756,0.936-1.655
			c0.145-1.26,0.145-3.672,0.145-6.623V5.507l-4.571,0.072c-1.98,0.036-2.736,0.252-3.204,0.972c-0.36,0.54-0.396,0.756-0.504,0.972
			c-0.072,0.252-0.18,0.288-0.324,0.288c-0.071,0-0.216-0.072-0.216-0.252c0-0.324,0.612-3.06,0.684-3.312
			c0.036-0.18,0.216-0.576,0.324-0.576c0.216,0,0.54,0.252,1.403,0.36c0.9,0.108,2.125,0.144,2.484,0.144h11.95
			c1.044,0,1.764-0.072,2.268-0.144c0.469-0.072,0.757-0.144,0.9-0.144s0.144,0.18,0.144,0.36c0,0.936-0.107,3.131-0.107,3.492
			c0,0.252-0.145,0.396-0.288,0.396s-0.216-0.108-0.252-0.54l-0.036-0.324c-0.108-0.936-0.792-1.62-3.815-1.692l-3.96-0.072V18.358z
			"/>
		<g>
			<linearGradient id="SVGID_4_" gradientUnits="userSpaceOnUse" x1="32.8335" y1="13.6606" x2="167.7607" y2="13.6606">
				<stop  offset="0" style="stop-color:#5B8E3F"/>
				<stop  offset="1" style="stop-color:#30ACC4"/>
			</linearGradient>
			<path fill="url(#SVGID_4_)" d="M151.022,26.745c-0.288,0-0.972-0.072-1.439-0.145c-0.936-0.144-1.044-0.72-1.152-1.619
				c-0.144-1.26-0.144-3.6-0.144-6.552v-2.657c-0.538-0.719-0.539-1.81,0-2.517V13.03c0-4.751,0-5.687,0.036-6.659
				c0.072-1.08,0.252-1.512,1.115-1.691c0.36-0.072,0.576-0.072,0.792-0.072c0.108,0,0.252-0.144,0.252-0.252
				c0-0.18-0.144-0.252-0.504-0.252c-0.972,0-2.987,0.072-3.131,0.072c-0.181,0-2.196-0.072-3.636-0.072
				c-0.36,0-0.504,0.072-0.504,0.252c0,0.108,0.144,0.252,0.252,0.252c0.288,0,0.828,0.036,1.08,0.072
				c1.043,0.144,1.224,0.647,1.295,1.691c0.072,0.972,0.072,1.836,0.072,6.587v5.4c0,2.951,0,5.363-0.18,6.623
				c-0.145,0.899-0.216,1.476-0.828,1.619c-0.288,0.072-0.684,0.145-0.972,0.145c-0.18,0-0.252,0.144-0.252,0.252
				c0,0.18,0.18,0.252,0.504,0.252c0.972,0,2.987-0.108,3.168-0.108c0.144,0,2.159,0.108,3.923,0.108
				c0.36,0,0.504-0.108,0.504-0.252C151.274,26.888,151.203,26.745,151.022,26.745z"/>
			<linearGradient id="SVGID_5_" gradientUnits="userSpaceOnUse" x1="32.8335" y1="13.6606" x2="167.7607" y2="13.6606">
				<stop  offset="0" style="stop-color:#5B8E3F"/>
				<stop  offset="1" style="stop-color:#30ACC4"/>
			</linearGradient>
			<path fill="url(#SVGID_5_)" d="M167.473,26.745c-0.252,0-0.972-0.072-1.404-0.145c-0.972-0.144-1.043-0.72-1.151-1.619
				c-0.144-1.26-0.18-3.672-0.18-6.623v-5.4c0-4.751,0-5.615,0.071-6.587c0.072-1.08,0.252-1.512,1.08-1.691
				c0.396-0.072,0.576-0.072,0.792-0.072c0.145,0,0.288-0.144,0.288-0.252c0-0.18-0.18-0.252-0.54-0.252
				c-0.936,0-2.951,0.072-3.132,0.072c-0.144,0-2.195-0.072-3.6-0.072c-0.359,0-0.504,0.072-0.504,0.252
				c0,0.108,0.108,0.252,0.252,0.252c0.288,0,0.828,0.036,1.08,0.072c1.044,0.144,1.188,0.647,1.26,1.691
				c0.036,0.972,0.072,1.908,0.072,6.659v0.013c0.801,0.688,0.698,1.98,0,2.77v2.617c0,2.952,0,5.256-0.145,6.516
				c-0.107,0.899-0.216,1.512-0.863,1.655c-0.288,0.072-0.648,0.145-0.936,0.145c-0.181,0-0.252,0.144-0.252,0.252
				c0,0.18,0.144,0.252,0.504,0.252c0.936,0,2.987-0.108,3.131-0.108c0.181,0,2.196,0.108,3.924,0.108c0.36,0,0.54-0.108,0.54-0.252
				C167.761,26.888,167.688,26.745,167.473,26.745z"/>
			<linearGradient id="SVGID_6_" gradientUnits="userSpaceOnUse" x1="32.8335" y1="13.6606" x2="167.7607" y2="13.6606">
				<stop  offset="0" style="stop-color:#5B8E3F"/>
				<stop  offset="1" style="stop-color:#30ACC4"/>
			</linearGradient>
			<polygon fill="url(#SVGID_6_)" points="148.287,13.255 147.685,13.255 147.685,15.792 148.287,15.772 			"/>
			<linearGradient id="SVGID_7_" gradientUnits="userSpaceOnUse" x1="32.8335" y1="13.6606" x2="167.7607" y2="13.6606">
				<stop  offset="0" style="stop-color:#5B8E3F"/>
				<stop  offset="1" style="stop-color:#30ACC4"/>
			</linearGradient>
			<rect x="161.857" y="13.042" fill="url(#SVGID_7_)" width="0.749" height="2.77"/>
			<linearGradient id="SVGID_8_" gradientUnits="userSpaceOnUse" x1="32.8335" y1="13.6606" x2="167.7607" y2="13.6606">
				<stop  offset="0" style="stop-color:#5B8E3F"/>
				<stop  offset="1" style="stop-color:#30ACC4"/>
			</linearGradient>
			<path fill="url(#SVGID_8_)" d="M161.857,15.842v0.601c0.004,0.001,0.008,0.003,0.012,0.004c0.368-0.099,0.798-0.224,0.892-0.437
				c0.402-1.103,0.182-1.825-0.661-2.167c-0.083-0.015-0.163-0.043-0.242-0.074v0.381c0,0.18-0.072,0.18-0.18,0.18h-13.211
				c-0.107,0-0.18,0-0.18-0.18v-0.37c-0.084,0.048-0.161,0.109-0.254,0.143c0.052,0.646-0.158,1.891-0.028,2.056
				c0.107,0.138,0.195,0.271,0.282,0.404v-0.542c0-0.145,0.072-0.181,0.18-0.181h13.211
				C161.785,15.662,161.857,15.698,161.857,15.842z"/>
		</g>
		<g>
			<linearGradient id="SVGID_9_" gradientUnits="userSpaceOnUse" x1="32.8335" y1="13.6606" x2="167.7607" y2="13.6606">
				<stop  offset="0" style="stop-color:#5B8E3F"/>
				<stop  offset="1" style="stop-color:#30ACC4"/>
			</linearGradient>
			<path fill="url(#SVGID_9_)" d="M42.192,26.708c-0.324,0-1.116-0.072-1.62-0.145c-1.08-0.144-1.296-0.936-1.404-1.979
				c-0.18-1.512-0.18-4.355-0.18-7.811v-3.149c-0.65-0.702-0.648-1.952,0-2.731v-0.456c0-5.615,0-6.623,0.073-7.775
				c0.072-1.26,0.36-1.872,1.332-2.052c0.432-0.072,0.648-0.108,0.9-0.108c0.144,0,0.288-0.072,0.288-0.216
				C41.58,0.072,41.4,0,41.005,0c-1.08,0-3.348,0.108-3.528,0.108C37.297,0.108,35.029,0,33.409,0c-0.396,0-0.576,0.072-0.576,0.288
				c0,0.144,0.144,0.216,0.288,0.216c0.324,0,0.936,0.036,1.224,0.108c1.188,0.252,1.476,0.828,1.547,2.052
				c0.073,1.152,0.073,2.16,0.073,7.775v6.335c0,3.455,0,6.299-0.181,7.811c-0.144,1.044-0.323,1.836-1.043,1.979
				c-0.324,0.072-0.757,0.145-1.08,0.145c-0.216,0-0.288,0.107-0.288,0.216c0,0.216,0.18,0.288,0.576,0.288
				c1.08,0,3.347-0.108,3.527-0.108c0.181,0,2.448,0.108,4.428,0.108c0.396,0,0.575-0.108,0.575-0.288
				C42.48,26.816,42.409,26.708,42.192,26.708z"/>
			<linearGradient id="SVGID_10_" gradientUnits="userSpaceOnUse" x1="32.8335" y1="13.6606" x2="167.7607" y2="13.6606">
				<stop  offset="0" style="stop-color:#5B8E3F"/>
				<stop  offset="1" style="stop-color:#30ACC4"/>
			</linearGradient>
			<path fill="url(#SVGID_10_)" d="M60.91,26.708c-0.323,0-1.115-0.072-1.619-0.145c-1.081-0.144-1.296-0.936-1.404-1.979
				c-0.181-1.512-0.181-4.355-0.181-7.811v-6.335c0-5.615,0-6.623,0.073-7.775c0.072-1.26,0.359-1.872,1.331-2.052
				c0.433-0.072,0.648-0.108,0.9-0.108c0.145,0,0.288-0.072,0.288-0.216c0-0.216-0.18-0.288-0.576-0.288
				c-1.079,0-3.347,0.108-3.527,0.108C56.014,0.108,53.747,0,52.127,0c-0.396,0-0.576,0.072-0.576,0.288
				c0,0.144,0.145,0.216,0.288,0.216c0.324,0,0.937,0.036,1.224,0.108c1.188,0.252,1.476,0.828,1.547,2.052
				c0.073,1.152,0.073,2.16,0.073,7.775v0.453c0.836,0.734,0.835,2.224,0,3.003v2.88c0,3.455,0,6.299-0.18,7.811
				c-0.144,1.044-0.324,1.836-1.044,1.979c-0.324,0.072-0.756,0.145-1.08,0.145c-0.216,0-0.288,0.107-0.288,0.216
				c0,0.216,0.18,0.288,0.576,0.288c1.08,0,3.347-0.108,3.528-0.108c0.18,0,2.448,0.108,4.427,0.108
				c0.396,0,0.576-0.108,0.576-0.288C61.198,26.816,61.126,26.708,60.91,26.708z"/>
			<linearGradient id="SVGID_11_" gradientUnits="userSpaceOnUse" x1="32.8335" y1="13.6606" x2="167.7607" y2="13.6606">
				<stop  offset="0" style="stop-color:#5B8E3F"/>
				<stop  offset="1" style="stop-color:#30ACC4"/>
			</linearGradient>
			<polygon fill="url(#SVGID_11_)" points="38.988,10.894 38.229,10.894 38.229,13.606 38.988,13.625 			"/>
			<linearGradient id="SVGID_12_" gradientUnits="userSpaceOnUse" x1="32.8335" y1="13.6606" x2="167.7607" y2="13.6606">
				<stop  offset="0" style="stop-color:#5B8E3F"/>
				<stop  offset="1" style="stop-color:#30ACC4"/>
			</linearGradient>
			<rect x="54.683" y="10.891" fill="url(#SVGID_12_)" width="0.775" height="3.003"/>
		</g>
		<g>
			<g>
				<linearGradient id="SVGID_13_" gradientUnits="userSpaceOnUse" x1="32.8335" y1="13.6606" x2="167.7607" y2="13.6606">
					<stop  offset="0" style="stop-color:#5B8E3F"/>
					<stop  offset="1" style="stop-color:#30ACC4"/>
				</linearGradient>
				<path fill="url(#SVGID_13_)" d="M103.222,26.745c-0.323,0-0.791-0.036-1.26-0.181c-0.684-0.216-1.547-0.611-2.699-3.347
					c-1.943-4.644-7.02-17.278-7.596-18.574c-0.324-0.684-0.432-1.116-0.755-1.116c-0.216,0-0.36,0.18-0.757,1.188l-7.45,19.15
					c-0.612,1.548-1.225,2.628-2.664,2.808c-0.252,0.036-0.72,0.072-0.937,0.072c-0.144,0-0.288,0.107-0.288,0.252
					c0,0.18,0.216,0.252,0.612,0.252c1.295,0,2.879-0.108,3.204-0.108c0.359,0,2.087,0.108,2.842,0.108
					c0.289,0,0.469-0.072,0.469-0.252c0-0.145-0.072-0.252-0.324-0.252h-0.287c-0.541,0-1.08-0.216-1.08-0.828
					c0-0.54,0.18-1.296,0.468-2.052l1.8-4.896c0-0.002,0.001-0.002,0.002-0.002c-0.451-0.6-0.225-1.649,0.666-1.781l2.932-8.332
					c0.18-0.468,0.359-0.468,0.539,0l3.1,8.298c0.885,0.125,1.116,1.154,0.686,1.758l2.839,7.006
					c0.216,0.504-0.108,0.756-0.288,0.828c-0.145,0.072-0.216,0.072-0.216,0.216c0,0.18,0.504,0.18,1.116,0.216
					c2.195,0.072,4.535,0.072,5.003,0.072c0.36,0,0.72-0.072,0.72-0.252S103.401,26.745,103.222,26.745z"/>
				<linearGradient id="SVGID_14_" gradientUnits="userSpaceOnUse" x1="32.8335" y1="13.6606" x2="167.7607" y2="13.6606">
					<stop  offset="0" style="stop-color:#5B8E3F"/>
					<stop  offset="1" style="stop-color:#30ACC4"/>
				</linearGradient>
				<polygon fill="url(#SVGID_14_)" points="87.188,17.186 86.344,16.995 85.859,18.667 86.521,18.969 				"/>
				<linearGradient id="SVGID_15_" gradientUnits="userSpaceOnUse" x1="32.8335" y1="13.6606" x2="167.7607" y2="13.6606">
					<stop  offset="0" style="stop-color:#5B8E3F"/>
					<stop  offset="1" style="stop-color:#30ACC4"/>
				</linearGradient>
				<polygon fill="url(#SVGID_15_)" points="93.759,17.153 94.444,18.911 95.094,18.651 94.427,16.885 				"/>
			</g>
			<linearGradient id="SVGID_16_" gradientUnits="userSpaceOnUse" x1="32.8335" y1="13.6606" x2="167.7607" y2="13.6606">
				<stop  offset="0" style="stop-color:#5B8E3F"/>
				<stop  offset="1" style="stop-color:#30ACC4"/>
			</linearGradient>
			<polygon fill="url(#SVGID_16_)" points="87.158,14.388 86.82,15.62 93.759,15.62 93.241,14.388 			"/>
		</g>
	</g>
</g>
<g>
	<g>
		<line fill="#522E91" x1="30.143" y1="12.234" x2="54.917" y2="12.234"/>
		<linearGradient id="SVGID_17_" gradientUnits="userSpaceOnUse" x1="30.1426" y1="12.2344" x2="54.9165" y2="12.2344">
			<stop  offset="0" style="stop-color:#522E91"/>
			<stop  offset="1" style="stop-color:#5B8E3F"/>
		</linearGradient>
		<rect x="30.143" y="11.384" fill="url(#SVGID_17_)" width="24.774" height="1.7"/>
	</g>
	<g>
		<line fill="#522E91" x1="14.727" y1="12.234" x2="0" y2="12.234"/>
		<polygon fill="#522E91" points="14.727,13.084 0,12.234 14.727,11.385 		"/>
	</g>
	<polygon fill="#522E91" points="14.734,11.375 20.521,27.242 18.669,27.242 13.374,12.937 	"/>
	<polygon fill="#522E91" points="20.73,27.242 28.864,5.157 26.952,5.157 18.853,27.242 	"/>
	<polygon fill="#522E91" points="29.076,5.157 27.225,5.157 30.118,13.09 31.38,11.378 	"/>
</g>
</svg>
